<svg width="64" height="64" fill="none" xmlns="http://www.w3.org/2000/svg"><path d="M48 50.293h-2.027c-2.133 0-4.16.827-5.653 2.32l-4.56 4.507c-2.08 2.053-5.467 2.053-7.547 0l-4.56-4.507c-1.493-1.493-3.546-2.32-5.653-2.32h-2c-4.427 0-8-3.546-8-7.92V13.28c0-4.373 3.573-7.92 8-7.92h32c4.427 0 8 3.547 8 7.92v29.093c0 4.347-3.573 7.92-8 7.92z" fill="#FFDC3F"/><path d="M27.68 38.693h-7.147a3.64 3.64 0 01-2.96-1.52c-.666-.906-.826-2.026-.506-3.093.933-2.853 3.226-4.4 5.253-5.787 2.133-1.44 3.333-2.346 3.333-3.893a2.504 2.504 0 00-2.506-2.507A2.504 2.504 0 0020.64 24.4c0 1.093-.907 2-2 2s-2-.907-2-2c0-3.573 2.907-6.507 6.507-6.507 3.6 0 6.506 2.907 6.506 6.507 0 3.76-2.826 5.68-5.093 7.227-1.413.96-2.747 1.866-3.413 3.066h6.506c1.094 0 2 .907 2 2 0 1.094-.88 2-1.973 2z" fill="#18181B"/><path d="M42.773 38.693c-1.093 0-2-.906-2-2v-1.84H35.52a3.694 3.694 0 01-3.173-1.813 3.635 3.635 0 010-3.68c1.813-3.12 3.92-6.667 5.84-9.76a3.572 3.572 0 014-1.547c1.52.454 2.586 1.84 2.56 3.44v9.387h.586c1.094 0 2 .907 2 2s-.906 2-2 2h-.56v1.84c0 1.093-.88 1.973-2 1.973zm-2-15.653a430.45 430.45 0 00-4.666 7.813h4.666V23.04z" fill="#000"/></svg>