<svg width="64" height="64" fill="none" xmlns="http://www.w3.org/2000/svg"><path d="M43.173 5.333h-22.32c-9.706 0-15.493 5.787-15.493 15.494v22.32c0 9.706 5.787 15.493 15.493 15.493h22.32c9.707 0 15.494-5.787 15.494-15.493v-22.32c0-9.707-5.787-15.494-15.494-15.494z" fill="#FFDC3F"/><path d="M23.52 42.72a1.978 1.978 0 01-1.413-.587 2.012 2.012 0 010-2.826L39.573 21.84a2.012 2.012 0 012.827 0 2.012 2.012 0 010 2.827L24.933 42.133c-.4.4-.906.587-1.413.587zm1.093-22.293a3.955 3.955 0 00-3.946 3.946c0 2.16 1.76 3.947 3.946 3.947 2.16 0 3.947-1.76 3.947-3.947-.027-2.186-1.787-3.946-3.947-3.946zm17.44 15.28a3.955 3.955 0 00-3.946 3.946c0 2.16 1.76 3.947 3.946 3.947 2.16 0 3.947-1.76 3.947-3.947a3.938 3.938 0 00-3.947-3.946z" fill="#000"/></svg>