<svg width="587" height="394" fill="none" xmlns="http://www.w3.org/2000/svg"><path d="M50.56 220.538a2.402 2.402 0 012.531 0c.211.134.422.26.648.378l.672.339c.406.186.752.482 1 .855s.39.808.407 1.257l.101 3.152 10.158-.316-.094-3.152a2.438 2.438 0 01.327-1.282 2.41 2.41 0 01.947-.916c.44-.24.867-.503 1.281-.788a2.396 2.396 0 012.516-.166l2.742 1.482 4.79-9.015-2.735-1.481a2.42 2.42 0 01-.939-.924 2.443 2.443 0 01-.319-1.283c0-.504 0-1.016-.047-1.521a2.436 2.436 0 01.229-1.294c.193-.402.492-.742.865-.983l2.641-1.655-5.344-8.668-2.657 1.655a2.406 2.406 0 01-2.523 0c-.211-.134-.43-.26-.649-.378l-.664-.41a2.402 2.402 0 01-1.005-.853 2.433 2.433 0 01-.41-1.259l-.093-3.152-10.157.315.101 3.152c.011.451-.102.896-.327 1.286a2.428 2.428 0 01-.946.921c-.438.247-.868.509-1.29.788a2.397 2.397 0 01-2.515.165l-2.735-1.481-4.797 9.015 2.765 1.505a2.419 2.419 0 011.258 2.206c0 .512 0 1.025.047 1.529.045.448-.036.9-.233 1.304a2.397 2.397 0 01-.884.981l-2.64 1.655 5.351 8.668 2.626-1.631zm2.539-16.146a8.335 8.335 0 013.414-3.432 8.239 8.239 0 014.73-.941 8.265 8.265 0 014.451 1.866 8.387 8.387 0 012.673 4.046 8.446 8.446 0 01-.005 4.862 8.385 8.385 0 01-2.682 4.04 8.252 8.252 0 01-9.183.906 8.377 8.377 0 01-4.025-4.965 8.455 8.455 0 01.627-6.382zM437.13 77.114a1.7 1.7 0 011.563-.836h1.047a1.67 1.67 0 011.562.836l1.094 1.899 6.157-3.578-1.094-1.907a1.717 1.717 0 01.063-1.788c.195-.297.373-.605.531-.922.141-.28.355-.516.62-.682.264-.165.569-.254.88-.256h2.18v-7.171h-2.18a1.68 1.68 0 01-.88-.257 1.706 1.706 0 01-.62-.68 9.7 9.7 0 00-.531-.93 1.69 1.69 0 01-.063-1.781l1.094-1.907-6.149-3.57-1.094 1.907a1.7 1.7 0 01-1.563.835h-1.046a1.7 1.7 0 01-1.563-.835l-1.094-1.907-6.157 3.577 1.094 1.9a1.717 1.717 0 01-.063 1.788 8.46 8.46 0 00-.531.93 1.688 1.688 0 01-1.5.938h-2.18v7.17h2.18a1.688 1.688 0 011.5.938c.157.322.335.632.531.93a1.704 1.704 0 01.063 1.789l-1.094 1.9 6.157 3.577 1.086-1.907zm-3.727-10.82c0-1.16.341-2.296.981-3.261a5.836 5.836 0 012.612-2.162 5.778 5.778 0 016.344 1.272 5.89 5.89 0 011.593 3.006 5.919 5.919 0 01-.331 3.392 5.864 5.864 0 01-2.144 2.635 5.786 5.786 0 01-3.234.989 5.804 5.804 0 01-4.114-1.722 5.904 5.904 0 01-1.707-4.149zM79.078 250.316a1.71 1.71 0 01.828 1.576v1.064a1.714 1.714 0 01-.781 1.576l-1.89 1.095 3.546 6.21 1.891-1.096a1.683 1.683 0 011.774.063c.297.19.602.371.914.528a1.718 1.718 0 01.93 1.521v2.191h7.11v-2.191a1.727 1.727 0 01.938-1.521 10.3 10.3 0 00.914-.528c.259-.175.562-.274.874-.286a1.67 1.67 0 01.891.223l1.891 1.096 3.555-6.21-1.953-1.103a1.684 1.684 0 01-.82-1.576v-1.056a1.69 1.69 0 01.828-1.576l1.891-1.103-3.555-6.202-1.883 1.096a1.683 1.683 0 01-1.774-.063c-.29-.189-.602-.371-.914-.536a1.704 1.704 0 01-.938-1.513v-2.191h-7.11v2.191a1.696 1.696 0 01-.93 1.513c-.32.165-.625.347-.922.536a1.68 1.68 0 01-1.773.063l-1.883-1.096-3.548 6.202 1.9 1.103zm10.728-3.767a5.79 5.79 0 013.234.99 5.861 5.861 0 012.144 2.634 5.918 5.918 0 01.33 3.392 5.886 5.886 0 01-1.592 3.006 5.782 5.782 0 01-6.344 1.273 5.838 5.838 0 01-2.612-2.162 5.906 5.906 0 01.726-7.411 5.81 5.81 0 014.114-1.722zm281.497 87.809c9.279-5.109 12.695-16.837 7.63-26.196-5.066-9.359-16.695-12.804-25.975-7.695-9.279 5.109-12.695 16.837-7.63 26.196 5.066 9.359 16.695 12.804 25.975 7.695zM242.416 100.06c10.572 0 19.143-8.643 19.143-19.306 0-10.662-8.571-19.306-19.143-19.306-10.572 0-19.143 8.644-19.143 19.306 0 10.663 8.571 19.306 19.143 19.306zm-67.546 99.129c.702-4.493-2.341-8.708-6.795-9.416-4.455-.707-8.634 2.361-9.336 6.854-.702 4.492 2.341 8.708 6.795 9.415 4.455.708 8.634-2.361 9.336-6.853zm313.979 8.134c4.509 0 8.164-3.687 8.164-8.235s-3.655-8.234-8.164-8.234c-4.51 0-8.165 3.686-8.165 8.234s3.655 8.235 8.165 8.235z" fill="#E4E4E7"/><path d="M170.711 197.752l-.031 1.576 90.252 1.821.031-1.576-90.252-1.821zm123.456 3.027l-1.343.807 68.641 116.22 1.343-.806-68.641-116.221zM247.533 85.608l-1.412.676 43.698 92.772 1.412-.676-43.698-92.772zM488.839 198.3H314.961v1.576h173.878V198.3zM180.465 53.158c3.008 0 5.446-2.459 5.446-5.492s-2.438-5.492-5.446-5.492c-3.007 0-5.445 2.459-5.445 5.492 0 3.034 2.438 5.492 5.445 5.492zm-14.222 6.682c0 1.092-.32 2.158-.921 3.065a5.482 5.482 0 01-2.455 2.032 5.425 5.425 0 01-3.16.314 5.453 5.453 0 01-2.8-1.51 5.53 5.53 0 01-1.497-2.824 5.56 5.56 0 01.311-3.187 5.508 5.508 0 012.014-2.476 5.439 5.439 0 016.906.686 5.539 5.539 0 011.602 3.9zM185.9 72.023a5.55 5.55 0 01-.922 3.065 5.477 5.477 0 01-2.455 2.031 5.425 5.425 0 01-3.16.314 5.453 5.453 0 01-2.8-1.51 5.53 5.53 0 01-1.497-2.824 5.56 5.56 0 01.311-3.187 5.504 5.504 0 012.015-2.475 5.435 5.435 0 016.906.686 5.543 5.543 0 011.602 3.9z" fill="#E4E4E7"/><path d="M180.033 73.308l-20.705-13.483 20.721-12.829.82 1.34-18.603 11.528 18.619 12.12-.852 1.324z" fill="#E4E4E7"/><path d="M159.374 140.538l-1.12 2.942 88.993 34.471 1.12-2.943-88.993-34.47zm93.587 80.528l-48.383 29.332 1.61 2.701 48.383-29.331-1.61-2.702zm82.094 7.864l-1.348 2.843 54.465 26.271 1.349-2.843-54.466-26.271zm94.245-95.291l-88.952 33.488 1.093 2.953 88.952-33.488-1.093-2.953zm-84.135-35.467l-29.517 47.38 2.647 1.677 29.516-47.38-2.646-1.677z" fill="#FFDC3F"/><path d="M293.499 256.715c32.804 0 59.396-26.82 59.396-59.904s-26.592-59.904-59.396-59.904c-32.805 0-59.397 26.82-59.397 59.904s26.592 59.904 59.397 59.904z" fill="#FDC436"/><path d="M153.924 131.132c7.345-29.778-10.636-59.924-40.163-67.332-29.526-7.408-59.416 10.727-66.762 40.505-7.345 29.778 10.636 59.924 40.163 67.332 29.526 7.408 59.416-10.727 66.762-40.505z" fill="#FFDC3F"/><path d="M100.464 182.028a63.419 63.419 0 01-35.443-10.843c-10.491-7.07-18.668-17.119-23.497-28.875a64.85 64.85 0 01-3.63-37.174 64.512 64.512 0 0117.46-32.944 63.63 63.63 0 0132.664-17.608 63.293 63.293 0 0136.859 3.661c11.658 4.87 21.621 13.117 28.631 23.697a64.731 64.731 0 0110.752 35.746c-.019 17.058-6.746 33.412-18.706 45.474-11.96 12.062-28.176 18.847-45.09 18.866zm0-125.528a60.3 60.3 0 00-33.707 10.312 61.079 61.079 0 00-22.345 27.46 61.674 61.674 0 00-3.453 35.353 61.35 61.35 0 0016.604 31.329A60.509 60.509 0 0088.628 177.7a60.193 60.193 0 0035.053-3.482 60.785 60.785 0 0027.229-22.536 61.562 61.562 0 0010.224-33.994c-.029-16.217-6.431-31.76-17.803-43.224-11.373-11.463-26.788-17.912-42.867-17.933v-.032zm386.07 117.995a63.412 63.412 0 01-35.443-10.844c-10.491-7.069-18.668-17.118-23.497-28.875a64.858 64.858 0 01-3.63-37.174 64.516 64.516 0 0117.46-32.943 63.63 63.63 0 0132.664-17.608 63.296 63.296 0 0136.86 3.66c11.657 4.87 21.621 13.117 28.631 23.698a64.73 64.73 0 0110.751 35.745c-.019 17.059-6.746 33.413-18.706 45.475-11.96 12.062-28.176 18.847-45.09 18.866zm0-125.529a60.31 60.31 0 00-33.707 10.312 61.079 61.079 0 00-22.345 27.46 61.674 61.674 0 00-3.453 35.354 61.351 61.351 0 0016.605 31.329 60.515 60.515 0 0031.064 16.746 60.196 60.196 0 0035.054-3.482c11.086-4.631 20.561-12.474 27.228-22.536a61.568 61.568 0 0010.225-33.995c-.017-16.222-6.414-31.776-17.789-43.248-11.374-11.471-26.796-17.923-42.882-17.94zM441.718 353.71a63.41 63.41 0 01-35.443-10.844c-10.491-7.07-18.668-17.118-23.497-28.875a64.85 64.85 0 01-3.63-37.174 64.505 64.505 0 0117.459-32.943 63.638 63.638 0 0132.665-17.609 63.296 63.296 0 0136.859 3.662c11.658 4.87 21.621 13.116 28.631 23.697a64.732 64.732 0 0110.752 35.745c-.019 17.059-6.746 33.413-18.706 45.475-11.96 12.062-28.176 18.847-45.09 18.866zm0-125.529c-12 0-23.73 3.589-33.707 10.312a61.082 61.082 0 00-22.345 27.461 61.664 61.664 0 00-3.453 35.353 61.35 61.35 0 0016.604 31.329 60.518 60.518 0 0031.065 16.746 60.193 60.193 0 0035.053-3.482 60.783 60.783 0 0027.228-22.536 61.56 61.56 0 0010.225-33.995c-.018-16.222-6.416-31.775-17.79-43.246-11.374-11.47-26.795-17.923-42.88-17.942zM152.081 348.414a63.414 63.414 0 01-35.454-10.824c-10.496-7.065-18.679-17.111-23.513-28.867a64.85 64.85 0 01-3.647-37.177 64.516 64.516 0 0117.451-32.954 63.628 63.628 0 0132.664-17.619 63.29 63.29 0 0136.865 3.655c11.659 4.868 21.625 13.115 28.637 23.696a64.74 64.74 0 0110.754 35.75c-.019 17.051-6.741 33.4-18.692 45.461-11.952 12.061-28.158 18.85-45.065 18.879zm0-125.528a60.3 60.3 0 00-33.717 10.293c-9.983 6.718-17.765 16.272-22.363 27.452a61.673 61.673 0 00-3.469 35.356 61.351 61.351 0 0016.596 31.34 60.518 60.518 0 0031.063 16.757 60.199 60.199 0 0035.06-3.476 60.779 60.779 0 0027.234-22.536 61.562 61.562 0 0010.228-33.998c-.021-16.215-6.414-31.76-17.779-43.23-11.365-11.469-26.775-17.927-42.853-17.958z" fill="#FFDC3F"/><path d="M495.443 301.795c6.788-29.912-11.754-59.711-41.414-66.556-29.659-6.846-59.206 11.854-65.993 41.767-6.788 29.912 11.754 59.711 41.414 66.556 29.659 6.846 59.205-11.854 65.993-41.767zm30.049-152.357c21.515-21.699 21.515-56.878 0-78.577-21.514-21.698-56.397-21.698-77.911 0-21.515 21.699-21.515 56.878 0 78.577 21.514 21.698 56.397 21.698 77.911 0z" fill="#FFDC3F"/><path opacity=".5" d="M525.492 149.438c21.515-21.699 21.515-56.878 0-78.577-21.514-21.698-56.397-21.698-77.911 0-21.515 21.699-21.515 56.878 0 78.577 21.514 21.698 56.397 21.698 77.911 0z" fill="#FFFAC6"/><path d="M190.988 323.361c21.515-21.698 21.515-56.878 0-78.576-21.514-21.699-56.396-21.699-77.911 0-21.515 21.698-21.515 56.878 0 78.576 21.515 21.698 56.397 21.698 77.911 0z" fill="#FFDC3F"/><path opacity=".5" d="M190.988 323.361c21.515-21.698 21.515-56.878 0-78.576-21.514-21.699-56.396-21.699-77.911 0-21.515 21.698-21.515 56.878 0 78.576 21.515 21.698 56.397 21.698 77.911 0z" fill="#FFFEE8"/><path d="M383.616 87.86c3.316-14.382-5.556-28.753-19.817-32.097-14.261-3.344-28.51 5.604-31.826 19.987-3.316 14.382 5.557 28.753 19.818 32.097 14.26 3.344 28.509-5.604 31.825-19.987z" fill="#FFDC3F"/><path d="M383.616 87.86c3.316-14.382-5.556-28.753-19.817-32.097-14.261-3.344-28.51 5.604-31.826 19.987-3.316 14.382 5.557 28.753 19.818 32.097 14.26 3.344 28.509-5.604 31.825-19.987zm-88.553 160.549h-3.125v63.221h3.125v-63.221z" fill="#FFDC3F"/><path d="M293.499 357.153c14.641 0 26.511-11.97 26.511-26.737 0-14.766-11.87-26.736-26.511-26.736-14.642 0-26.511 11.97-26.511 26.736 0 14.767 11.869 26.737 26.511 26.737z" fill="#FFDC3F"/><path d="M293.499 357.153c14.641 0 26.511-11.97 26.511-26.737 0-14.766-11.87-26.736-26.511-26.736-14.642 0-26.511 11.97-26.511 26.736 0 14.767 11.869 26.737 26.511 26.737z" fill="#FFDC3F"/><path d="M333.227 185.968l-3.547 3.554-2.008 2.041c-9.532-9.299-20.893-14.263-34.176-14.263-13.282 0-24.627 4.964-34.23 14.341-.625-.661-1.266-1.347-1.914-2.009-1.156-1.19-2.344-2.364-3.5-3.554 0 0-.071-.039-.102-.063v-.087l.258-.212c1.492-1.34 2.945-2.727 4.485-4.003a51.958 51.958 0 0110.376-6.667 52.482 52.482 0 0113.743-4.665c2.274-.417 4.579-.63 6.868-.914.782-.102 5.86-.118 6.017-.11 1.562.118 3.125.189 4.688.362a53.124 53.124 0 0112.61 3.034 55.514 55.514 0 018.533 4.027 54.022 54.022 0 018.141 5.752c1.274 1.095 2.5 2.262 3.743 3.396l.015.04z" fill="#fff"/><path d="M270.54 202.831l-5.61-5.603a39.373 39.373 0 0122.807-11.552c13.282-1.804 24.651 2.254 34.3 11.474l-5.625 5.65c-6.345-6.21-13.978-9.567-22.932-9.567-8.954 0-16.557 3.357-22.94 9.598z" fill="#fff"/><path d="M310.812 208.473a1821.084 1821.084 0 01-5.578 5.619 16.563 16.563 0 00-5.387-3.645 16.454 16.454 0 00-12.722 0 16.56 16.56 0 00-5.386 3.645l-5.571-5.611a24.333 24.333 0 017.933-5.406 24.157 24.157 0 0118.775-.004 24.32 24.32 0 017.936 5.402zm-12.284 10.732a5.11 5.11 0 01-.849 2.824 5.051 5.051 0 01-2.262 1.872 4.987 4.987 0 01-2.911.289 5.025 5.025 0 01-2.581-1.391 5.094 5.094 0 01-1.379-2.602 5.124 5.124 0 01.287-2.937 5.075 5.075 0 011.856-2.281 5.013 5.013 0 012.8-.856c1.336 0 2.618.535 3.563 1.489a5.103 5.103 0 011.476 3.593zm42.328-133.959a4.414 4.414 0 001.167 2.99 4.345 4.345 0 002.872 1.391h24.706a5.102 5.102 0 003.594-1.4 5.187 5.187 0 001.612-3.528 5.196 5.196 0 00-1.28-3.665 5.11 5.11 0 00-3.45-1.73 8.745 8.745 0 00-2.143-5.477 8.614 8.614 0 00-5.109-2.85 8.574 8.574 0 00-5.74 1.083 8.691 8.691 0 00-3.744 4.518 5.094 5.094 0 00-4.855.147 5.158 5.158 0 00-1.799 1.757 5.218 5.218 0 00-.761 2.406 4.172 4.172 0 00-.711-.063 4.353 4.353 0 00-3.091 1.296 4.408 4.408 0 00-1.268 3.124zm-47.061 231.869c-9.376 0-17.049 5.689-17.049 12.695a10.105 10.105 0 001.696 5.516l-2.282 5.161 5.876-1.513a20.337 20.337 0 0011.759 3.514c9.415 0 17.041-5.681 17.041-12.702s-7.626-12.671-17.041-12.671zm-7.907 14.475a1.747 1.747 0 01-.979-.304 1.775 1.775 0 01-.647-.8 1.793 1.793 0 01.388-1.939 1.752 1.752 0 012.714.274 1.79 1.79 0 01-.798 2.636 1.755 1.755 0 01-.678.133zm7.907 0c-.349 0-.691-.104-.981-.3a1.775 1.775 0 01-.651-.799 1.8 1.8 0 01.383-1.941 1.75 1.75 0 012.717.27 1.793 1.793 0 01-.22 2.249c-.331.334-.78.521-1.248.521zm7.899 0c-.349 0-.691-.104-.981-.3a1.793 1.793 0 01-.267-2.74 1.757 1.757 0 012.716.27 1.793 1.793 0 01-.219 2.249 1.759 1.759 0 01-1.249.521z" fill="#fff"/><path d="M455.862 276.943a.485.485 0 01-.391.52l-2.015.134c-1.805-4.728-3.743-8.495-3.235-7.021a24.48 24.48 0 011.258 7.139c-.883.055-2.938.15-3.969.205-1.563-8.337-3.579-14.515-3.454-12.608.508 7.691.063 10.165-.469 12.805-9.587.457-22.158.914-31.253 1.048-1.055-4.602-1.977-9.59-2.133-9.243-1.242 2.608-1.563 6.382-1.602 9.29-2.898 0-5.211 0-6.625-.11 0 0-.672-3.869-.782-5.146a26.806 26.806 0 011.016-9.7c.961-3.231 2.625-6.083 4.196-9.007v-.071a27.35 27.35 0 002.414-6.004.13.13 0 000-.048c.398-1.512.659-3.058.781-4.617.422-5.69 3.594-10.615 8.9-12.12 10.009-9.519 20.041-5.516 23.073 1.765.289.709.57 1.521.851 2.412 1.024 3.285 1.946 7.549 2.797 10.85v.04c.314 1.293.71 2.564 1.188 3.806 2.578 5.965 8.384 9.33 9.454 25.681z" fill="#18181B"/><path d="M416.233 233.934c-3.477 1.836-5.61 4.507-6.149 8.668-.313 2.419-.469 4.783-1.391 7.092a25.175 25.175 0 01-4 6.225c-2.462 3.073-4.173 6.131-4.556 10.204-.382 4.074-.187 8.992 1.188 12.829 0 0 .039 0 0 0-1.125-3.94-1.156-9.338-.469-13.396.782-4.507 3.29-7.344 5.876-10.772a18.892 18.892 0 003.797-9.196c.258-2.056.227-4.192 1.047-6.123.977-2.308 2.922-3.782 4.86-5.09a.246.246 0 00-.028-.437.24.24 0 00-.175-.004zm36.081 23.742c-2.462-3.223-5.017-5.973-6.454-9.968-1.313-3.648-2.063-7.502-3.399-11.142a.062.062 0 00.004-.023.053.053 0 00-.008-.022.044.044 0 00-.039-.021.044.044 0 00-.039.021.042.042 0 00-.008.022c0 .008.001.015.004.023 2.055 6.461 2.453 12.986 6.602 18.423 2.25 2.955 4.501 5.689 5.985 9.228a31.779 31.779 0 012.344 11.694.102.102 0 00.098.13.1.1 0 00.045-.011.095.095 0 00.036-.03.102.102 0 00.017-.089 26.307 26.307 0 00-5.188-18.235z" fill="#18181B"/><path d="M387.027 343.245c0-.158.055-.315.086-.473-.039.197-.078.386-.101.583.007-.031.008-.071.015-.11zm26.021 4.641a1.428 1.428 0 01-.267.143v-.064l.275-.063-.008-.016z" fill="#FFDC3F"/><path d="M423.813 278.046c-16.283 16.642-36.723 51.645-32.941 58.745 4.25 7.88 26.916-15.421 26.831-16.784-.063-1.032 7.914-22.301 13.962-37.761 6.047-15.461-3.829-8.321-7.852-4.2z" fill="#F68420"/><path d="M417.86 320.031c.688-2.278 11.54-30.315 14.642-39.18 3.102-8.865.227-11.615-8.594-3.491-8.822 8.125-28.316 35.255-32.738 49.66-4.266 13.869 2.813 13.869 12.157 7.478 7.642-5.24 14.533-14.467 14.533-14.467z" fill="#18181B"/><path d="M433.672 276.06c0 .166 0 .331-.062.504a.576.576 0 01-.461.245.562.562 0 01-.492-.303.568.568 0 01.04-.579.553.553 0 01.975.133zm-18.47 11.733a.564.564 0 00-.56.676.568.568 0 00.444.449.564.564 0 00.67-.565.56.56 0 00-.554-.56zm8.969 0a.559.559 0 00-.52.352.57.57 0 00.415.773.56.56 0 00.668-.565.57.57 0 00-.165-.399.553.553 0 00-.398-.161zm-4.485-5.799a.569.569 0 00-.115 1.124.564.564 0 00.67-.565.552.552 0 00-.555-.559zm8.97 0a.555.555 0 00-.52.352.57.57 0 00.415.772.56.56 0 00.668-.565.553.553 0 00-.547-.559h-.016zm-22.424 17.903a.559.559 0 00-.525.345.576.576 0 00.116.621.562.562 0 00.964-.399.561.561 0 00-.555-.567zm8.97 0a.561.561 0 00-.561.673.562.562 0 001.115-.106.552.552 0 00-.159-.4.562.562 0 00-.395-.167zm8.969 0a.56.56 0 00-.519.35.576.576 0 00.121.619.565.565 0 00.614.123.57.57 0 00.306-.743.557.557 0 00-.522-.349zm-13.47-5.8a.568.568 0 00-.525.345.57.57 0 00.405.779.569.569 0 00.326-.031.567.567 0 00.349-.525.561.561 0 00-.555-.568zm8.97 0a.568.568 0 00-.525.345.57.57 0 00.116.621.57.57 0 00.288.158.567.567 0 00.58-.24.575.575 0 00-.059-.711.554.554 0 00-.385-.173h-.015zm-13.439 17.951a.553.553 0 00-.513.345.561.561 0 00.405.763.55.55 0 00.569-.238.563.563 0 00-.069-.706.552.552 0 00-.392-.164zm8.97 0a.559.559 0 10.212 1.076.556.556 0 00.342-.517.563.563 0 00-.342-.516.536.536 0 00-.212-.043zm-13.463-5.8a.559.559 0 10.222 1.076.56.56 0 00.341-.516.568.568 0 00-.151-.424.546.546 0 00-.412-.175v.039zm8.978 0a.546.546 0 00-.308.095.557.557 0 00-.236.574.557.557 0 00.756.408.562.562 0 00.342-.517.56.56 0 00-.343-.558.568.568 0 00-.227-.041l.016.039zm8.969 0a.553.553 0 00-.512.346.566.566 0 00.12.609.556.556 0 00.605.122.562.562 0 00.342-.517.558.558 0 00-.555-.599v.039zm-22.432 17.904a.555.555 0 00-.544.668.561.561 0 00.436.44.56.56 0 00.57-.238.562.562 0 00.093-.311.564.564 0 00-.555-.599v.04zm8.978 0a.553.553 0 00-.513.345.558.558 0 00.121.61.554.554 0 00.947-.396.558.558 0 00-.148-.421.565.565 0 00-.407-.178v.04zm-4.493-5.8a.566.566 0 00-.395.971.56.56 0 00.867-.094.577.577 0 00-.074-.716.562.562 0 00-.398-.161zm8.962 0a.558.558 0 00-.526.347.562.562 0 101.081.212.562.562 0 00-.555-.559zm-13.462 17.903a.564.564 0 00-.56.676.568.568 0 00.444.449.564.564 0 00.67-.565.561.561 0 00-.322-.548.543.543 0 00-.217-.051l-.015.039zm-4.485-5.799a.56.56 0 00-.525.344.573.573 0 00.404.779.56.56 0 00.58-.24.57.57 0 00.096-.316.571.571 0 00-.14-.421.555.555 0 00-.4-.186l-.015.04zm8.97 0a.562.562 0 00-.552.678.566.566 0 00.442.446.565.565 0 00.672-.557.563.563 0 00-.326-.558.556.556 0 00-.221-.049l-.015.04z" fill="#fff"/><path d="M470.281 336.902a54.779 54.779 0 01-29.55 8.034 54.802 54.802 0 01-29.245-9.098l.125-.733 2.344-17.446s-5.47-9.693-2.297-16.643c1.609-3.514 15.743-25.421 21.705-29.77 5.579-4.09 13.681.283 16.705 3.49 10.642 11.308 16.158 32.892 20.213 62.166z" fill="#D1D1D6"/><path d="M411.631 335.113c.289-2.924.594-5.839.946-8.755.351-2.916.664-5.831 1.047-8.739l.07.26a19.336 19.336 0 01-3.375-12.371c.162-1.45.52-2.871 1.062-4.224a42.477 42.477 0 014.024-7.565 67.562 67.562 0 015.071-6.848c-1.664 2.301-3.211 4.681-4.688 7.092a49.877 49.877 0 00-3.774 7.565 15.35 15.35 0 00-.969 4.035 20.177 20.177 0 00.203 4.16 19.168 19.168 0 002.97 7.723l.085.126v.134c-.39 2.908-.859 5.799-1.281 8.707-.422 2.908-.906 5.808-1.391 8.7z" fill="#18181B"/><path d="M415.758 293.759a4.84 4.84 0 01.203-1.159 10.372 10.372 0 01.914-2.135c.19-.341.404-.668.641-.977a18.4 18.4 0 01-.782 2.174c-.32.686-.648 1.387-.976 2.097zm7.835 21.638c3.155.11 6.281.64 9.298 1.576 3.031.867 9.735 3.546 11.415 4.2v.071a56.587 56.587 0 01-6.454-1.962 127.692 127.692 0 00-9.016-2.735 41.832 41.832 0 00-5.22-.953c-.14-.032-.14-.205-.023-.197zm-5.53 1.608a28.525 28.525 0 019.759.874c.039 0 0 .079 0 .071a126.775 126.775 0 00-4.853-.52c-1.617-.134-3.273-.22-4.899-.331a.048.048 0 01-.034-.011.05.05 0 01-.016-.032.05.05 0 01.011-.035.047.047 0 01.032-.016z" fill="#18181B"/><path d="M390.873 336.791c3.664 5.288 13.634 6.304 38.52 11.213 3.438.678 14.736-22.536 11.095-23.451-4.587-1.158-22.659-4.633-23.972-4.728-11.392-.685-28.128 13.381-25.643 16.966z" fill="#F68420"/><path d="M435.509 323.411s10.54 1.576 15.822 4.176c7.032 3.444 11.767 9.354 13.587 11.954 3.797 5.414 9.267 21.166 5.04 23.546-3.821 2.159-8.595-14.232-8.595-14.232s7.618 15.894 2.539 17.636c-5.078 1.741-9.555-17.596-9.555-17.596s7.454 16.508 1.937 17.47c-4.172.725-9.204-16.548-9.204-16.548s6.314 14.231 2.055 15.169c-4.688 1.032-10.345-14.633-10.345-14.633-11.212.535-16.767-3.838-20.314-7.423-.922-.883 17.033-19.519 17.033-19.519z" fill="#F68420"/><path d="M459.067 343.19c.961 1.836 1.946 3.687 2.743 5.602.797 1.915 1.562 3.854 2.141 5.839a35.607 35.607 0 011.672 7.935c-.782-4.728-3.54-11.662-4.337-13.577-.797-1.915-1.5-3.861-2.289-5.768-.024-.047.047-.071.07-.031zm-6.907 2.742c1.133 2.364 2.344 4.728 3.36 7.179 1.016 2.45 1.766 4.838 2.617 7.336.063.189-.062.165-.132 0-.946-2.467-2.009-4.673-2.985-7.092-.977-2.419-1.86-4.941-2.915-7.344l.055-.079zm-6.354 1.34a58.803 58.803 0 014.298 11.37c.054.197-.102.142-.164-.055-1.36-3.806-2.399-6.8-4.251-11.252-.031-.071.078-.142.117-.063zm-8.094-23.861l-21.799 24.475s-22.041-5.106-25.292-10.803c-2.14-3.751 14.455-18.912 26.988-17.179l20.103 3.507z" fill="#18181B"/><path d="M406.794 324.656a.56.56 0 01-.092.318.561.561 0 01-1.023-.201.569.569 0 01.773-.634.56.56 0 01.342.517zm8.415-.56a.56.56 0 00-.108 1.109.557.557 0 00.663-.549.56.56 0 00-.563-.544l.008-.016zm8.97 0a.553.553 0 00-.507.351.567.567 0 00.125.607.551.551 0 00.851-.088.56.56 0 00.093-.31.556.556 0 00-.57-.544l.008-.016zm8.977 0a.558.558 0 00-.544.669.558.558 0 00.436.44.556.556 0 00.663-.549.56.56 0 00-.563-.544l.008-.016zM397.262 336.2a.564.564 0 00-.56.676.568.568 0 00.444.448.555.555 0 00.579-.246.564.564 0 00-.079-.707.557.557 0 00-.392-.155l.008-.016zm8.977 0a.561.561 0 00-.526.347.577.577 0 00.121.622.56.56 0 10.397-.953l.008-.016zm8.97 0a.564.564 0 00-.56.676.564.564 0 00.771.414.566.566 0 00.344-.53.555.555 0 00-.563-.544l.008-.016zm8.97 0a.566.566 0 10.22 1.089.563.563 0 00.169-.92.552.552 0 00-.397-.153l.008-.016zm-22.432-5.8a.563.563 0 00-.552.679.566.566 0 00.442.445.557.557 0 00.577-.241.555.555 0 00-.076-.711.545.545 0 00-.399-.156l.008-.016zm8.977 0a.57.57 0 00-.315.092.576.576 0 00-.245.582.563.563 0 00.766.419.567.567 0 00.349-.525.572.572 0 00-.362-.515.568.568 0 00-.216-.037l.023-.016zm8.97 0a.568.568 0 00-.525.345.573.573 0 00.404.779.567.567 0 00.58-.24.575.575 0 00.096-.316.563.563 0 00-.563-.552l.008-.016zm8.969 0a.56.56 0 00-.519.351.565.565 0 00.735.741.565.565 0 00.182-.915.554.554 0 00-.39-.161l-.008-.016zm-26.916 12.112a.556.556 0 00-.536.673.559.559 0 00.438.436.553.553 0 10.09-1.093l.008-.016zm8.977 0a.553.553 0 00-.512.345.555.555 0 101.067.215.563.563 0 00-.362-.51.55.55 0 00-.216-.034l.023-.016zm8.97 0a.562.562 0 00-.497.563.562.562 0 00.497.564l.555-.623a.563.563 0 00-.563-.496l.008-.008z" fill="#fff"/><path d="M402.665 323.868a21.598 21.598 0 0114.963-4.003c.062 0 .062.11 0 .11-5.47-.157-12.853 2.727-14.916 3.988-.055.047-.102-.04-.047-.095zm7.257 19.921c2.25-2.821 4.688-5.516 7.032-8.211a278.191 278.191 0 017.29-8.022c1.398-1.481 2.789-2.979 4.242-4.413 0-.039.11 0 .078.055-2.25 2.821-4.641 5.516-7.032 8.235a504.841 504.841 0 01-7.258 8.053 132.988 132.988 0 01-4.243 4.421c-.008.071-.109-.032-.109-.118z" fill="#18181B"/><path d="M437.751 323.08a31.602 31.602 0 00-4.086-.938 157.637 157.637 0 00-4.141-.717c-2.743-.449-8.517-1.702-13.595-1.686-.055 0 .234.268.289.268 2.414-.134 19.728 3.341 21.151 3.443a2.006 2.006 0 00-.149.292c0 .071 0 .165.117.11.117-.055.305-.268.469-.402a.2.2 0 00.092-.203.204.204 0 00-.147-.167zm16.275-46.823c20.83 18.329 37.215 40.976 36.152 46.626-1.984 10.536-15.744 11.198-17.83 8.92-8.43-9.219-17.33-27.075-26.979-46.996-8.611-17.801 1.797-14.586 8.657-8.55z" fill="#18181B"/><path d="M450.235 275.69a.569.569 0 01-.347.524.557.557 0 01-.613-.123.562.562 0 01-.154-.291.563.563 0 01.032-.327.557.557 0 01.519-.351.555.555 0 01.563.568zm-.563 11.544a.553.553 0 00-.507.351.57.57 0 00.126.607.555.555 0 00.603.117.553.553 0 00.341-.516.574.574 0 00-.165-.398.562.562 0 00-.398-.161zm8.978 0a.553.553 0 00-.513.345.561.561 0 00.405.763.55.55 0 00.569-.238.563.563 0 00-.069-.706.552.552 0 00-.392-.164zm-13.462-5.8a.552.552 0 00-.513.346.566.566 0 00.12.609.547.547 0 00.605.122.562.562 0 000-1.034.554.554 0 00-.212-.043zm8.969 0a.559.559 0 10.222 1.076.56.56 0 00-.222-1.076zm4.493 17.904a.555.555 0 00-.555.559c0 .148.059.291.163.396a.552.552 0 00.784 0 .564.564 0 000-.792.555.555 0 00-.392-.163zm8.97 0a.55.55 0 00-.513.345.564.564 0 00.12.61.562.562 0 00.284.153.56.56 0 00.57-.238.562.562 0 00-.461-.87zm8.782 0a.563.563 0 00-.168.961.552.552 0 00.363.126.576.576 0 00.477-.276c-.235-.236-.453-.512-.672-.78v-.031zm-22.245-5.832a.559.559 0 00-.52.353.567.567 0 00.741.737.565.565 0 00.342-.53.56.56 0 00-.563-.528v-.032zm8.978 0a.564.564 0 00-.56.676.568.568 0 00.444.449.564.564 0 00.671-.565.562.562 0 00-.555-.528v-.032zm8.501.268a.588.588 0 00.081.693.545.545 0 00.395.166.449.449 0 00.227-.055 16.806 16.806 0 01-.696-.772l-.007-.032zm-12.775 17.675c.109.213.219.418.336.615a.378.378 0 000-.095.558.558 0 00-.336-.488v-.032zm8.759 0a.563.563 0 00-.526.347.568.568 0 00.41.777.555.555 0 00.579-.246.569.569 0 00.091-.318.557.557 0 00-.554-.568v.008zm8.969 0a.566.566 0 00-.395.971.56.56 0 00.867-.094.574.574 0 00.091-.317.568.568 0 00-.163-.404.542.542 0 00-.4-.164v.008zm8.767 0a.574.574 0 00-.134.958.57.57 0 00.353.13.576.576 0 00.375-.15c-.196-.276-.391-.591-.594-.906v-.032zm-22.221-5.839a.56.56 0 00-.525.345.567.567 0 00.404.778c.11.023.223.012.326-.031a.57.57 0 00.35-.525.568.568 0 00-.171-.38.547.547 0 00-.384-.155v-.032zm8.969 0a.56.56 0 00-.519.35.567.567 0 00.735.742.565.565 0 00.347-.525.562.562 0 00-.173-.383.55.55 0 00-.39-.152v-.032zm9.525.449l-.266-.346a.552.552 0 00-.814.598.553.553 0 00.297.391.552.552 0 00.636-.105.564.564 0 00.163-.396.678.678 0 00-.016-.11v-.032zm-14.009 17.454a.568.568 0 00-.121 1.124.568.568 0 00.58-.24.574.574 0 00.095-.316.557.557 0 00-.554-.536v-.032zm8.969 0a.56.56 0 00-.519.351.563.563 0 00-.032.327.558.558 0 00.442.446.557.557 0 00.577-.241.569.569 0 00.095-.315.56.56 0 00-.563-.536v-.032zm8.978 0a.568.568 0 00-.525.345.573.573 0 00.404.779.567.567 0 00.58-.24.575.575 0 00.096-.316.555.555 0 00-.555-.536v-.032zm-22.432-5.791a.554.554 0 00-.544.668.558.558 0 00.436.44.557.557 0 00.663-.549.557.557 0 00-.555-.528v-.031zm8.969 0a.55.55 0 00-.506.35.567.567 0 00.125.607.551.551 0 00.851-.088.56.56 0 00.093-.31.56.56 0 00-.563-.528v-.031zm8.978 0a.56.56 0 00-.108 1.108.557.557 0 00.663-.549.56.56 0 00-.555-.528v-.031zm-8.978 12.135a.553.553 0 00-.506.351.562.562 0 00.409.758.554.554 0 00.567-.24.559.559 0 00-.072-.708.544.544 0 00-.398-.161zm8.978 0a.562.562 0 00-.392.955.552.552 0 00.784 0 .563.563 0 000-.791.552.552 0 00-.392-.164z" fill="#fff"/><path d="M468.921 327.682c-1.562-2.364-2.969-4.854-4.422-7.281a571.649 571.649 0 01-4.328-7.352c-2.805-4.87-5.407-9.85-7.915-14.87-1.422-2.852-2.868-5.681-4.22-8.565 0-.087-.195 0-.156.071a164.367 164.367 0 004.219 9.889l-.078-.102c-.344-.457-.68-.922-1.008-1.387a51.066 51.066 0 01-1.851-2.806c-.047-.078-.157 0-.118.071a32.298 32.298 0 002.282 3.759c.401.58.837 1.135 1.305 1.663l.039.039a144.473 144.473 0 002.133 4.303 169.504 169.504 0 008.501 14.814c.875 1.34 1.75 2.679 2.664 3.987.914 1.308 1.899 2.585 2.836 3.877.055.016.157-.039.117-.11z" fill="#18181B"/><path d="M475.801 329.762c-3.946-5.713-1.946-17.084 2.39-44.333.594-3.774 28.988-4.066 28.55 0-.547 5.114-5.602 25.327-6.922 28.297-6.446 14.547-21.346 19.913-24.018 16.036zm31.864-55.656c-1.094-8.668-2.696-10.725.234-18.542 1.922-5.13-.5-8.565-4.735-4.783-6.915 6.186-7.813 17.675-7.032 21.749l11.533 1.576z" fill="#F68420"/><path d="M480.24 242.255l-10.291 34.908c-.422 1.017.063 1.884 1.071 1.923l18.056.788a2.915 2.915 0 002.579-1.765l10.298-34.916c.414-1.025-.063-1.884-1.071-1.923l-18.056-.788a2.902 2.902 0 00-1.548.508 2.941 2.941 0 00-1.038 1.265z" fill="#18181B"/><path d="M482.35 242.326l-10.298 34.908c-.415 1.025.062 1.884 1.07 1.931l18.057.788a2.91 2.91 0 001.545-.506 2.951 2.951 0 001.041-1.259l10.29-34.916c.422-1.017-.063-1.884-1.07-1.923l-18.049-.788a2.898 2.898 0 00-1.547.505 2.938 2.938 0 00-1.039 1.26z" fill="#51525C"/><path d="M487.272 244.146a1.572 1.572 0 01-1.044 1.412 1.554 1.554 0 01-1.69-.446 1.59 1.59 0 01-.224-1.747 1.559 1.559 0 011.52-.866c.405.033.782.223 1.05.53.268.307.408.708.388 1.117z" fill="#18181B"/><path d="M503.21 298.652s5.141-11.26 4.883-20.622c-.18-6.469-2.133-20.488-18.9-29.849-3.977-2.215-11.205-2.53-6.009 3.467 3.688 4.263 7.298 5.847 9.001 8.715 0 0-9.243.701-11.29 4.807a85.669 85.669 0 00-4.587 11.111 18.95 18.95 0 001.985 1.056s-1.563 4.011.735 10.149l24.182 11.166z" fill="#F68420"/><path d="M506.939 271.86c-2.282-2.49-7.204-7.691-12.705-10.536-6.102-3.152-18.705-7.572-20.971-3.002-1.656 3.349 3.008 5.469 3.008 5.469s-5.594-.725-6.43 2.632c-.781 3.065 2.938 4.476 2.938 4.476s-3.469.157-3.641 3.246c-.219 3.72 7.079 2.79 10.094 6.738.672.874 27.707-9.023 27.707-9.023z" fill="#F68420"/><path d="M492.006 268.377c-2.524-1.994-9.376-5.027-15.627-4.689-.14 0-.211.119-.078.142a66.676 66.676 0 0115.627 4.602c.086.016.109-.039.078-.055zm-3.337 6.123c-2.344-1.497-9.595-4.295-15.869-3.735-.141 0-.203.126-.07.142a71.416 71.416 0 0115.915 3.648s.055-.039.024-.055zm18.528 20.157l-32.918 9.416s-6.563 21.765-2.391 27.226c4.462 5.831 25.19-3.207 29.308-15.926l6.001-20.716z" fill="#18181B"/><path d="M495.085 299.897a.563.563 0 01-.555.56.558.558 0 01-.392-.955.542.542 0 01.392-.164.55.55 0 01.512.345.564.564 0 01.043.214zm8.422-.559a.56.56 0 00-.554.559c0 .149.058.291.162.396a.552.552 0 00.785 0 .562.562 0 00-.393-.955zm-26.924 12.103a.56.56 0 00-.521.352.57.57 0 00.416.773.557.557 0 00.576-.248.566.566 0 00.091-.317.562.562 0 00-.162-.396.552.552 0 00-.393-.164h-.007zm8.977 0a.568.568 0 000 1.127.56.56 0 00.496-.563.568.568 0 00-.496-.564zm8.97 0a.564.564 0 00-.56.676.568.568 0 00.444.448.555.555 0 00.579-.246.578.578 0 00-.068-.711.553.553 0 00-.387-.167h-.008zm-13.455-5.799a.556.556 0 00-.525.344.57.57 0 00.405.779.56.56 0 00.58-.24.57.57 0 00-.452-.883h-.008zm8.97 0a.56.56 0 00-.525.344.567.567 0 00.731.748.567.567 0 00.349-.525.57.57 0 00-.336-.522.543.543 0 00-.211-.045h-.008zm8.97 0a.562.562 0 00-.552.678.566.566 0 00.442.445.557.557 0 00.577-.241.569.569 0 00.095-.315.566.566 0 00-.362-.533.537.537 0 00-.224-.034h.024zm-22.432 17.903a.566.566 0 00-.552.678.562.562 0 001.114-.111.552.552 0 00-.16-.4.558.558 0 00-.395-.167h-.007zm8.977 0a.565.565 0 00-.56.673.557.557 0 00.44.45.553.553 0 00.579-.24.562.562 0 00.096-.316.56.56 0 00-.547-.567h-.008zm8.97 0a.562.562 0 00-.497.563.566.566 0 00.497.564.568.568 0 000-1.127zm-22.432-5.792a.556.556 0 00-.536.674.563.563 0 00.438.435.556.556 0 00.66-.549.562.562 0 00-.162-.396.552.552 0 00-.392-.164h-.008zm8.977 0a.555.555 0 00-.544.669.562.562 0 00.436.439.547.547 0 00.569-.237.565.565 0 00-.066-.704.55.55 0 00-.387-.167h-.008zm8.97 0a.553.553 0 00-.513.346.557.557 0 00.121.609.548.548 0 00.853-.084.565.565 0 00-.066-.704.55.55 0 00-.387-.167h-.008zm8.97 0a.556.556 0 00-.536.674.563.563 0 00.438.435.557.557 0 00.615-.771.568.568 0 00-.319-.305.558.558 0 00-.222-.033h.024zm-26.909 12.104a.554.554 0 00-.507.351.562.562 0 00.409.758.553.553 0 00.66-.55.574.574 0 00-.165-.398.56.56 0 00-.397-.161zm8.977 0a.562.562 0 00-.392.955.552.552 0 00.784 0 .563.563 0 000-.791.552.552 0 00-.392-.164z" fill="#fff"/><path d="M475.358 311.623c3.673-.836 7.298-1.876 10.939-2.924s7.259-2.088 10.853-3.223c2.039-.646 4.078-1.276 6.086-1.993.055 0 .039-.111 0-.095-3.664.835-7.297 1.86-10.938 2.876-3.641 1.017-7.259 2.088-10.877 3.152-2.039.623-4.07 1.277-6.078 1.994-.125.063-.094.244.015.213zm.092-7.912c-.516.055-1.024.165-1.563.26a.234.234 0 00-.156.173c-.563 1.923-.961 3.94-1.36 5.887-.398 1.946-.781 3.9-1.062 5.862a72.816 72.816 0 00-.446 3.152 11.658 11.658 0 00-1.14 4.098.067.067 0 00.066.048.074.074 0 00.041-.013.075.075 0 00.026-.035c.153-1.268.479-2.509.968-3.688a26.22 26.22 0 00.204 7.77c-.649-3.83.304-7.833.929-11.607a227.69 227.69 0 011.039-5.65c.368-1.876.782-3.743 1.141-5.619.438-.165.875-.331 1.297-.536.117 0 .117-.102.016-.102z" fill="#18181B"/><path d="M441.869 269.993c-.172 1.095-4.759 8.463-9.657 8.597-1.563 0-2.204-8.739-2.204-8.739l-.187-.639-2.673-8.928 10.072-7.62 1.461-1.016s.57 2.49 1.25 5.603c.039.141.07.283.102.441.031.157.086.339.117.504.109.465.219.938.312 1.411.094.473.149.709.219 1.087s.141.788.219 1.135c.509 2.695.833 5.423.969 8.164z" fill="#F68420"/><path d="M441.783 268.322c-6.813 1.237-10.751-.386-12.783-1.836l-1.852-6.202 10.072-7.62 1.461-1.008s.57 2.482 1.25 5.595c0 .141.063.283.102.441.039.157.086.339.117.504.109.465.219.938.312 1.411.094.473.149.709.211 1.095.063.386.149.788.227 1.127.43 2.419.734 4.901.883 6.493z" fill="#18181B"/><path d="M446.73 245.651c3.063 16.067-6.133 19.7-9.571 20.401-3.125.599-13.814 2.246-18.51-13.396-4.695-15.641 1.743-22.182 8.806-23.939 7.063-1.757 16.213.859 19.275 16.934z" fill="#F68420"/><path d="M443.721 242.578a10.457 10.457 0 01-1.118-.087 1.758 1.758 0 01-1.125-.299.59.59 0 01-.094-.701 1.421 1.421 0 011.352-.528 2.088 2.088 0 011.414.559.621.621 0 01-.429 1.056zm-11.4.953a9.71 9.71 0 001.063-.362 1.828 1.828 0 001.016-.583.596.596 0 00-.086-.702 1.433 1.433 0 00-1.446-.165c-.503.14-.938.462-1.219.906a.627.627 0 00.326.881.61.61 0 00.346.025zm3.445 4.5c0-.047-.078.063-.071.102.196 1.104.235 2.364-.703 2.9v.063c1.196-.347 1.133-2.088.774-3.065z" fill="#18181B"/><path d="M434.625 247.015c-1.773.126-1.406 3.703.243 3.593 1.648-.111 1.25-3.688-.243-3.593z" fill="#18181B"/><path d="M433.954 247.282c-.289.237-.555.623-.93.702-.375.078-.781-.253-1.109-.584 0 0-.063 0-.055.048.055.685.391 1.363 1.133 1.387.742.023 1.086-.631 1.188-1.34.015-.134-.118-.307-.227-.213zm8.204-.37c0-.047.094.04.094.087.094 1.111.383 2.364 1.414 2.624v.063c-1.234-.032-1.601-1.71-1.508-2.774z" fill="#18181B"/><path d="M443.004 245.643c1.75-.338 2.297 3.215.672 3.531-1.626.315-2.134-3.247-.672-3.531z" fill="#18181B"/><path d="M443.776 245.761c.305.142.633.442.969.418.336-.024.617-.465.781-.875 0-.039.047 0 .055 0 .125.678 0 1.419-.618 1.647-.617.229-1.093-.299-1.359-.953-.016-.087.047-.292.172-.237zm-6.733 10.883c.281.244.563.591.969.599a2.926 2.926 0 001.164-.347s.07 0 .055.047a1.5 1.5 0 01-1.368.694 1.192 1.192 0 01-.922-.938c-.023-.063.063-.087.102-.055zm4.131-4.539s.414 1.623.508 2.403c0 .079-.172.134-.438.182a3.673 3.673 0 01-3.727-.962c-.062-.071 0-.165.102-.126a5.489 5.489 0 003.469.575c0-.22-.781-2.758-.688-2.781a6.456 6.456 0 011.805.197c-.781-3.412-2.078-6.675-2.797-10.087a.106.106 0 01.063-.134.103.103 0 01.132.063c1.61 3.318 2.587 7.226 3.469 10.725.079.441-1.578.04-1.898-.055z" fill="#18181B"/><path d="M419.3 252.775c4-.465 4.188-12.995 4.196-14.531.047.969.312 6.099.711 6.304a3.81 3.81 0 001.242-.339 13.196 13.196 0 010-1.844c0-.291.156.607.398 1.702.219-.086.461-.181.727-.268a14.895 14.895 0 01.07-3.94c.086-.488.383 1.671.993 3.538a48.1 48.1 0 0110.352-2.71c.993-.119 1.86-.174 2.626-.197-.11-1.513-.414-3.105-.274-2.766.369.889.652 1.813.844 2.758h1.149c-.063-2.144-1.336-5.469-.961-4.972a15.202 15.202 0 012.461 5.09c1.461.165 1.883.418 1.891.039 0-.685-1.274-6.595-6.251-10.606-5.383-4.358-15.478-4.728-20.541 3.034 0 0-4.399 3.428-4.743 8.408-.344 4.98 2.805 11.56 5.11 11.3z" fill="#18181B"/><path d="M433.938 254.193a4.968 4.968 0 01-2.66-.699 5.034 5.034 0 01-1.892-2.012 5.073 5.073 0 01-.551-2.716c.071-.94.402-1.84.955-2.6a5.008 5.008 0 012.174-1.697 4.962 4.962 0 015.204.936 5.05 5.05 0 011.458 2.35 5.09 5.09 0 01-.43 3.832 5.016 5.016 0 01-2.985 2.409 5.133 5.133 0 01-1.273.197zm-.289-9.409a4.308 4.308 0 00-3.562 2.141 4.377 4.377 0 00-.486 3.159 4.337 4.337 0 001.79 2.638 4.278 4.278 0 005.819-.949 4.369 4.369 0 00-.575-5.916 4.284 4.284 0 00-2.986-1.073zm11.627 7.636c-1.915.063-3.704-1.86-4.095-4.46a6.087 6.087 0 01.532-3.641c.209-.496.541-.93.965-1.26a3.11 3.11 0 013.023-.452c.5.192.943.51 1.286.924.853.92 1.4 2.085 1.562 3.334.407 2.742-.914 5.232-2.937 5.516a1.589 1.589 0 01-.336.039zm-.782-9.354a1.305 1.305 0 00-.25 0 2.675 2.675 0 00-1.922 1.537 5.444 5.444 0 00-.461 3.239c.352 2.364 1.985 4.113 3.657 3.861 1.672-.252 2.735-2.364 2.383-4.775a5.362 5.362 0 00-1.375-2.955 2.758 2.758 0 00-2.047-.907h.015z" fill="#fff"/><path d="M438.512 248.354l-.5-.441c.656-.749 2.258-1.868 3.656-.741l-.414.528c-1.25-1.009-2.688.591-2.742.654zm-20.832 4.633l-.633-.212c.101-.3 1.023-2.924 2.461-3.381 1.438-.457 9.329-.961 9.712-.985v.67c-2.571.142-8.501.622-9.54.953-1.039.331-1.758 2.238-2 2.955z" fill="#fff"/><path d="M421.928 252.948s-4.047-4.728-6.204-3.199c-2.156 1.528 1.25 8.589 4.04 9.314.351.119.722.164 1.091.134.37-.029.729-.134 1.057-.308a2.762 2.762 0 001.36-1.686l-1.344-4.255z" fill="#F68420"/><path d="M416.75 251.766v.079c1.961.567 3.125 2.222 4.008 3.94a1.514 1.514 0 00-1.106-.629 1.508 1.508 0 00-1.191.448c0 .039 0 .11.063.094a1.672 1.672 0 011.906.402c.397.432.748.905 1.047 1.411.102.165.399.039.313-.15-.219-2.427-2.438-5.619-5.04-5.595zm1.828-20.094c-.07 1.198-5.711 4.074-9.759 1.009-4.047-3.066-2.344-9.125 3.172-8.526 3.493.378 6.728 4.98 6.587 7.517z" fill="#18181B"/><path d="M406.793 227.275a6.933 6.933 0 013.071-3.451 4.154 4.154 0 014.203 0 8.538 8.538 0 013.126 3.325c.372.691.683 1.413.929 2.159.296.753.45 1.554.453 2.364a5.825 5.825 0 000-2.466 10.61 10.61 0 00-.781-2.364 8.26 8.26 0 00-3.289-3.799 4.83 4.83 0 00-2.54-.63 4.919 4.919 0 00-2.445.788 6.171 6.171 0 00-1.781 1.753c-.469.7-.791 1.49-.946 2.321z" fill="#18181B"/><path d="M413.048 347.894l-.267.071.267-.071z" fill="#F68420"/><path d="M387.113 342.78c-.039.197-.078.386-.101.583v-.11c0-.04.07-.323.101-.473z" fill="#FFDC3F"/><path d="M387.113 342.78c-.039.197-.078.386-.101.583v-.11c0-.04.07-.323.101-.473zm27.129 7.959l-.844.197.844-.197z" fill="#FFDC3F"/><path d="M387.113 342.78c-.039.197-.078.386-.101.583v-.11c0-.04.07-.323.101-.473z" fill="#D1D1D6"/><path d="M154.292 277.266c4.555 6.8 28.363 39.321 41.2 38.832 15.556-.591 34.558-6.863 42.465-12.269 4.431-3.026-10.938-24.719-15.228-22.505-6.813 3.499-22.658 8.55-25.393 9.156-2.735.607-22.596-14.349-34.527-20.905-10.728-5.91-11.728 2.908-8.517 7.691z" fill="#F68420"/><path d="M237.193 304.073c2.938-1.237 18.447-8.904 21.627-11.631 3.18-2.726 11.783-11.244 9.954-13.908-1.828-2.663-4.532-.386-4.532-.386s3.063-4.176.985-6.69c-2.078-2.514-6.18 1.182-6.18 1.182s2.836-4.523.586-6.887c-2.251-2.364-5.767 2.057-5.767 2.057s2.79-4.004.125-5.17c-3.211-1.395-7.516 6.588-11.259 9.33-.843.623-18.087 11.395-18.087 11.395l12.548 20.708z" fill="#F68420"/><path d="M254.177 267.439c-3.18 5.863-5.579 7.88-11.283 11.032-.109.055-.039.236.078.189 5.868-2.616 9.236-4.728 11.494-11.111.109-.283-.141-.417-.289-.11zm5.11 4.728c-3.828 5.8-6.414 7.998-12.142 11.781-.078.055 0 .197.086.15 5.931-3.239 9.244-5.39 12.314-11.686.141-.284-.086-.505-.258-.245zm4.657 6.17c-4.118 5.335-6.845 7.88-12.869 10.827a.126.126 0 00.011.216.126.126 0 00.083.013c6.438-2.412 9.86-5.516 12.915-10.914.211-.37.118-.481-.14-.142z" fill="#18181B"/><path d="M218.367 285.429s2.961-7.817 5.009-10.969c2.047-3.152 13.978-12.025 16.032-9.535 2.641 3.207-3.242 9.708-6.531 12.506 0 0 6.125 7.431 2.898 13.018-3.227 5.587-17.408-5.02-17.408-5.02z" fill="#F68420"/><path d="M239.847 266.044c.313 4.689-4.242 8.085-7.235 11.032a.38.38 0 00-.103.153.39.39 0 00.181.478c2.344 3.286 4.743 8.62 3.344 12.663a.086.086 0 00-.008.036.12.12 0 00.006.037.1.1 0 00.019.031.105.105 0 00.03.022.094.094 0 00.036.008.078.078 0 00.037-.006.1.1 0 00.031-.019.102.102 0 00.021-.03c2.087-4.129.172-9.559-2.648-12.994 3.125-2.987 7.547-6.596 6.336-11.419-.008-.023-.047-.023-.047.008z" fill="#18181B"/><path d="M217.43 282.545l13.713 27.714s-30.058 11.733-41.763 5.138c-11.704-6.596-29.792-29.251-33.55-34.42-8.243-11.316-1.774-17.241 7.415-11.473 9.188 5.768 31.925 19.85 33.37 20.244 1.446.394 20.815-7.203 20.815-7.203z" fill="#FFDC3F"/><path opacity=".1" d="M186.802 313.75c-11.619-8.085-27.48-27.974-30.972-32.781-7.478-10.244-2.852-16.091 4.953-12.758l26.019 45.539z" fill="#51525C"/><path d="M223.743 311c-1.742-3.05-3.328-6.194-4.898-9.338-1.571-3.144-3.126-6.304-4.688-9.456-.844-1.805-1.704-3.601-2.485-5.437 0-.047.055-.095.078-.048 1.742 3.042 3.344 6.186 4.93 9.315 1.586 3.128 3.126 6.304 4.688 9.456a124.117 124.117 0 012.485 5.429c.109.079-.063.165-.11.079z" fill="#51525C"/><path d="M181.467 331.062a54.781 54.781 0 01-32.287 8.499 54.857 54.857 0 01-31.235-11.84c3.016-15.76 10.415-42.741 25.745-60.503 4.274-4.956 15.939-3.506 17.299-1.512 9.149 13.403 17.267 48.375 20.478 65.356z" fill="#FFDC3F"/><path d="M168.98 342.551l33.668 7.967 17.541-46.555-33.668-7.967-17.541 46.555z" fill="#18181B"/><path d="M170.629 342.945l33.675 7.967 17.541-46.555-33.667-7.967-17.549 46.555z" fill="#D1D1D6"/><path d="M201.148 322.591a3.757 3.757 0 01-1.699 2.063 3.701 3.701 0 01-2.63.396 3.04 3.04 0 01-2.383-2.732c-.036-.433.02-.869.164-1.279a3.78 3.78 0 011.704-2.053 3.732 3.732 0 012.625-.406 3.024 3.024 0 012.012 1.498 3.069 3.069 0 01.207 2.513z" fill="#fff"/><path d="M137.616 273.593c-9.736 13.672-30.683 44.916-24.503 52.111 10.157 11.859 34.965 22.245 42.739 24.593 3.352 1.017 15.361-23.569 12.197-25.586-3.798-2.427-28.128-12.056-28.214-13.238-.133-1.308 4.414-18.124 5.914-31.394 1.852-16.47-4.07-12.159-8.133-6.486z" fill="#F68420"/><path d="M155.831 322.985s10.219-3.018 17.001-4.68c3.774-.922 10.4-1.931 13.486-1.324 4.61.898 23.346 7.628 21.831 12.245-1.383 4.177-16.744-3.672-16.744-3.672s16.197 6.541 13.626 11.261c-2.57 4.72-18.752-6.47-18.752-6.47s16.502 7.092 13.08 11.536c-2.587 3.365-17.815-5.941-17.815-5.941s14.135 6.194 11.627 9.763c-2.774 3.94-17.369-3.743-17.369-3.743-7.892 7.991-14.744 9.062-19.925 8.337-1.234-.165-.046-27.312-.046-27.312z" fill="#F68420"/><path d="M186.701 323.269c12.298 3.893 17.142 9.606 16.986 9.456-3.766-2.963-10.384-6.178-12.243-7.045-1.86-.867-2.923-1.497-4.782-2.364-.047 0-.008-.063.039-.047zm-3.991 6.391a43.618 43.618 0 0114.064 6.627c.164.126.07.165-.11.071-2.344-1.167-11.602-5.587-13.985-6.643-.032-.016-.008-.063.031-.055zm-3.796 5.24a32.416 32.416 0 0110.743 5.516c.164.118 0 .173-.164.078-3.539-1.883-6.298-3.388-10.626-5.397-.07-.063-.039-.197.047-.197z" fill="#18181B"/><path d="M160.574 320.905l-13.681 29.424s-32.613-17.722-35.074-26.051c-2.462-8.33 19.713-44.964 26.448-52.418 6.735-7.455 8.93-4.413 8.735 4.113-.195 8.526-6.829 35.098-6.672 35.594.156.497 20.244 9.338 20.244 9.338z" fill="#FFDC3F"/><path d="M142.762 298.999c.443-1.991.872-3.985 1.289-5.981.219-1.04.43-2.081.664-3.152.109-.481.211-.954.32-1.434.047-.237.125-.473.165-.71.036-.324.115-.642.234-.945 0-.055.109-.048.101 0-.054.543.055.331-.046.74a7.796 7.796 0 00-.164.946c-.071.481-.149.969-.227 1.45a92.14 92.14 0 01-.516 2.955c0 .126-.054.26-.078.386a.405.405 0 000-.11c.367-1.064.742-2.128 1.11-3.152 0-.047.086 0 .078 0a35.787 35.787 0 01-.891 3.262c-.203.623-.445 1.222-.688 1.828-.257 1.316-.507 2.624-.781 3.94-.852 4.058-1.727 8.132-2.891 12.104 1.704.788 3.446 1.497 5.157 2.293 1.711.796 3.407 1.576 5.11 2.427 1.703.851 3.407 1.623 5.086 2.467.782.401 1.602.788 2.407 1.229.805.441 1.688 1.001 2.57 1.426.086.039 0 .173-.078.134-.914-.425-1.89-.733-2.82-1.143-.782-.354-1.625-.701-2.43-1.063-1.727-.788-3.43-1.576-5.141-2.364-1.712-.788-3.415-1.576-5.11-2.427-1.696-.851-3.344-1.726-5.032-2.554a.213.213 0 01-.068-.051.211.211 0 01-.041-.075.227.227 0 01-.094-.228c.875-4.082 1.898-8.124 2.805-12.198zm4.214 33.537c1.016-2.128 5.149-10.63 6.337-12.655h.063c-.782 2.159-4.595 10.669-5.61 12.805a130.222 130.222 0 01-6.454 12.608c-.047.071-.18 0-.141-.063 1.649-4.358 3.797-8.511 5.805-12.695zm-23.554 3.239c.782.433 1.454.969 2.165 1.465l2.211 1.537c1.445 1.016 2.891 2.064 4.43 2.931a.08.08 0 01.027.047.085.085 0 01-.01.054.077.077 0 01-.095.033c-1.563-.898-3.126-1.733-4.688-2.718a22.49 22.49 0 01-4.149-3.247.073.073 0 01-.02-.054.073.073 0 01.024-.052.07.07 0 01.053-.02.07.07 0 01.052.024z" fill="#18181B"/><path d="M159.533 276.383c-3.594 1.3-10.572-3.664-13.595-7.991-.204-.299-.102-3.687-.165-7.809-.046-2.498-.164-5.279-.445-7.817l16.182 2.057a41.051 41.051 0 00-.422 9.897c.04.351.116.697.226 1.033 0 .047 0 .102.039.165.539 1.939 1.665 9.196-1.82 10.465z" fill="#F68420"/><path d="M161.088 264.72c.035.302.098.6.187.891-7.93-.442-12.814-4.2-15.572-7.415a72.382 72.382 0 00-.375-5.43l16.182 2.057a41.102 41.102 0 00-.422 9.897z" fill="#18181B"/><path d="M139.879 235.32c-.703 5.887 5.055 21.481 9.626 24.373 6.626 4.192 16.056 3.01 19.229-4.728 3.07-7.462-4.798-27.659-9.767-30.141-7.321-3.617-18.049 1.805-19.088 10.496z" fill="#F68420"/><path d="M156.262 241.853s-.063.086-.047.126c.422 1.04.719 2.301-.094 3.002v.055c1.125-.591.703-2.261.141-3.183z" fill="#18181B"/><path d="M154.932 241.128c-1.726.488-.625 3.94.977 3.475 1.602-.465.469-3.917-.977-3.475zm7.697-1.576s.094 0 .109.071c.313 1.079.844 2.261 1.915 2.301 0 0 .046.055 0 .063-1.212.228-1.907-1.348-2.024-2.435z" fill="#18181B"/><path d="M163.217 238.149c1.656-.685 2.898 2.711 1.359 3.349-1.539.639-2.75-2.734-1.359-3.349zm-10.135 1.82c.422-.275.781-.591 1.172-.906a2.355 2.355 0 001.016-1.15.788.788 0 00-.399-.843 1.886 1.886 0 00-1.859.401c-.57.389-.979.975-1.149 1.647a.792.792 0 00.306.869.775.775 0 00.913-.018zm10.898-3.987c-.49.057-.983.086-1.476.087a2.324 2.324 0 01-1.516-.197.79.79 0 01-.242-.906 1.867 1.867 0 011.672-.914 2.73 2.73 0 011.937.488.789.789 0 01.323.856.786.786 0 01-.698.586zm-5.257 15.855c.317.233.702.352 1.093.339a3.054 3.054 0 001.055-.646s.071 0 .063.039a1.538 1.538 0 01-.44.671 1.51 1.51 0 01-.717.353 1.183 1.183 0 01-1.14-.677c-.032-.056.039-.103.086-.079z" fill="#18181B"/><path d="M158.819 248.283a3.742 3.742 0 002.922.827 4.618 4.618 0 001.313-.362c.084-.029.165-.066.242-.11l.219-.111a.274.274 0 00.133-.307.436.436 0 00-.047-.103v-.094c-.243-.828-.727-2.057-.727-2.057.352.055 2.086.252 1.922-.173-1.344-3.483-2.844-7.36-4.922-10.536a.105.105 0 00-.057-.038.106.106 0 00-.068.007.106.106 0 00-.049.049.103.103 0 00-.006.069c1.164 3.404 2.914 6.572 4.141 9.968a6.635 6.635 0 00-1.867 0c-.11.071.969 2.364 1.047 2.727a.128.128 0 000 .039c-1.313.623-2.485.544-4.11.047-.117-.008-.18.095-.086.158z" fill="#18181B"/><path d="M162.459 248.629a4.525 4.525 0 01-1.367 1.836 2.029 2.029 0 01-1.164.402c-.914 0-1.157-.788-1.18-1.497-.01-.383.024-.767.101-1.142a5.816 5.816 0 003.61.401z" fill="#18181B"/><path d="M161.09 250.466a2.04 2.04 0 01-1.164.402c-.914 0-1.156-.788-1.18-1.498.456-.11.936-.063 1.361.136.426.199.772.537.983.96z" fill="#F68420"/><path d="M145.33 247.574c2.672-.954.485-7.596.485-7.596s3.922-2.002 4.328-8.306c0 0 6.321 1.828 10.572-.299 6.664-3.342 3.836-12.498.664-13.609-4.485-1.576-10.025 4.239-10.025 4.239s-10.86.103-11.892 7.833a5.381 5.381 0 00-2.938 2.637 5.454 5.454 0 00-.367 3.951c1.125 5.082 7.173 11.867 9.173 11.15z" fill="#18181B"/><path d="M145.051 241.049a9.674 9.674 0 004.422-4.428 7.325 7.325 0 00-.18-6.667c-.062-.11.11-.205.172-.095 1.172 2.199 1.719 4.642.782 7.053a6.777 6.777 0 01-2.004 2.862 6.703 6.703 0 01-3.153 1.472.103.103 0 01-.065-.023.106.106 0 01-.035-.059.11.11 0 01.01-.069.104.104 0 01.051-.046zm-10.089-7.454c.875-2.175 2.914-3.066 5.024-3.602.025 0 .048.01.066.028a.095.095 0 01-.066.162c-2.125.362-3.798 2.364-4.384 4.357-.586 1.994.266 4.003 1.219 5.713a15.21 15.21 0 008.378 7.106.047.047 0 010 .067.047.047 0 01-.033.014 15.196 15.196 0 01-5.435-2.884 15.342 15.342 0 01-3.863-4.815c-.898-1.844-1.719-4.129-.906-6.146zm16.214-11.19a7.21 7.21 0 013.008-4.106 8.448 8.448 0 016.009-1.103 4.82 4.82 0 012.222 1.153 4.875 4.875 0 011.356 2.117 8.73 8.73 0 01-.344 5.776.04.04 0 01-.017.021.05.05 0 01-.026.008.044.044 0 01-.025-.008.046.046 0 01-.018-.021 8.64 8.64 0 00.078-5.169 4.492 4.492 0 00-1.362-2.062 4.44 4.44 0 00-2.239-1.019c-3.259-.449-7.415.993-8.462 4.507-.055.087-.211.024-.18-.094z" fill="#18181B"/><path d="M145.608 247.849s-4.625-4.475-6.711-2.71c-2.087 1.765 2.109 8.747 5.055 9.227a2.82 2.82 0 002.2-.391 2.863 2.863 0 001.245-1.87l-1.789-4.256z" fill="#F68420"/><path d="M140.148 247.109a.04.04 0 00-.039.039.04.04 0 00.039.039c2.079.402 3.446 1.994 4.524 3.72a1.55 1.55 0 00-1.854-.414c-.207.097-.39.238-.537.414-.039.047 0 .11.079.094a1.744 1.744 0 012.008.221c.447.41.851.867 1.203 1.363.125.158.422 0 .312-.189v-.039c-.461-2.443-3.047-5.524-5.735-5.248z" fill="#18181B"/><path d="M161.311 265.556l-3.446 9.606-12.033-11.45-3.125 3.94s12.064 18.494 12.103 17.635l3.524-8.258 5.766 5.437-.985-14.184-1.804-2.726z" fill="#fff"/><path d="M163.99 275.438c-.243-2.364-.422-4.728-.782-7.006 0-.079-.14-.11-.164 0-.375 2.278.594 11.19.664 13.333-.234-.236-5.328-4.775-5.375-4.728-.782 1.324-3.391 7.336-3.563 7.88-1.907-2.939-9.197-13.601-11.423-16.367a.094.094 0 00-.05-.022.091.091 0 00-.053.013.085.085 0 00-.035.042.083.083 0 00-.003.054c1.703 3.113 11.361 17.478 11.501 17.439a91.513 91.513 0 003.68-8.7c.875 1.001 6.04 6.139 6.04 5.792a76.463 76.463 0 00-.437-7.73z" fill="#18181B"/><path d="M480.905 91.912c-2.656 7.754-13.587 45.956-20.885 48.068-11.899 3.491-20.963 2.364-30.472 2.609-5.352.134-13.657-25.815-8.813-25.949 7.719-.221 25.252 1.142 28.057 1.008 2.805-.134 13.228-21.882 23.073-31.33 8.892-8.495 10.908.133 9.04 5.594z" fill="#F68420"/><path d="M432.65 141.919c-.43.165-6.618 2.537-10.361 3.223-2.789.512-10.868 1.765-11.72-1.285-.593-2.072 4.071-3.372 7.345-4.365 1.727-.528 3.907-2.065 3.571-3.152-.664-1.97-5.118-.528-8.087.827-5.743 2.608-13.548 7.581-16.58 4.46-1.141-1.174.508-2.931 2.828-4.586-3.672 1.828-7.539 3.231-8.86 1.978-.781-.717-.711-1.576-.148-2.537a2.39 2.39 0 01-2.618-.694c-1-1.3-.281-2.986 1.133-4.649a1.363 1.363 0 01-.953-.788c-2-3.901 10.939-13.152 15.166-13.703 12.391-1.647 25.073.212 25.073.212 4.352 4.303 4.227 25.051 4.211 25.059z" fill="#F68420"/><path d="M416.018 128.838a20.448 20.448 0 00-8.383 2.301c-3.274 1.718-5.556 3.94-8.368 6.036-.079.055 0 .173.086.118 1.336-1.016 6.852-4.791 8.266-5.626a19.502 19.502 0 018.407-2.774s.024-.055-.008-.055zm-1.733-5.406a49.06 49.06 0 00-9.72 2.301c-3.398 1.332-6.196 3.775-8.946 6.115a150.105 150.105 0 00-4.86 4.334c-.07.063 0 .181.086.118a181.43 181.43 0 018.595-7.021 25.899 25.899 0 019.118-4.554c1.891-.513 3.813-.875 5.735-1.238.039 0 .031-.063-.008-.055zm-2.926-4.877c-3.126.315-5.907.583-8.806 1.97-3.852 1.836-7.727 5.192-9.087 6.39a126.964 126.964 0 00-4.399 4.066c-.054.063.039.166.102.111a102.375 102.375 0 0110.376-8.432 20.35 20.35 0 015.626-2.908 35.856 35.856 0 016.188-1.174s.015-.023 0-.023z" fill="#18181B"/><path d="M449.809 112.684l19.158 23.404s11.087-30.859 13.337-44.515c2.344-14.23-2.344-18.478-14.29-3.656a298.462 298.462 0 00-18.205 24.767z" fill="#FFDC3F"/><path d="M467.92 90.344a1.456 1.456 0 01-.649-.228 1.273 1.273 0 01-.5-.654c-.148.18-.297.362-.43.543.171.258.417.456.704.568.276.115.58.148.875.094.273-.063.531-.094.781-.165a6.353 6.353 0 00-.781-.158zm-4.509 36.697a1.54 1.54 0 01-.648-.212 1.227 1.227 0 01-.563-1.072 1.654 1.654 0 00-.298-.909 1.63 1.63 0 00-.749-.588 1.403 1.403 0 00-.875-.063c-.273.063-.531.094-.781.157.256.073.517.129.781.166.234.015.46.082.664.197a1.242 1.242 0 01.594 1.04 1.667 1.667 0 001 1.529c.279.11.582.137.875.078.264-.038.524-.09.782-.157-.25-.071-.508-.103-.782-.166zm17.971-39.652c-.118.28-.154.59-.101.89.062.26.101.52.164.789.078-.276.109-.536.164-.788.016-.236.091-.464.218-.662a1.237 1.237 0 01.977-.575c0-.229 0-.45.039-.662a1.634 1.634 0 00-1.437 1.009h-.024zm-16.22 19.566a6.802 6.802 0 00-.164-.788c-.063.26-.094.52-.165.788a1.684 1.684 0 01-.187.67 1.212 1.212 0 01-1.031.599 1.651 1.651 0 00-1.516 1.009c-.109.28-.138.586-.086.882.04.266.095.529.164.788.066-.259.118-.522.156-.788.027-.232.104-.456.227-.654a1.213 1.213 0 011.07-.567c.322-.012.634-.118.898-.306.264-.187.467-.448.587-.75a1.73 1.73 0 00.047-.883zm7.915-9.164a1.43 1.43 0 01-.618.307 1.175 1.175 0 01-1.14-.354 1.63 1.63 0 00-1.79-.307 1.57 1.57 0 00-.664.582c-.148.229-.32.442-.453.686.242-.15.453-.307.68-.457a1.31 1.31 0 01.609-.323 1.196 1.196 0 011.164.291 1.567 1.567 0 001.275.505 1.565 1.565 0 001.179-.701c.148-.23.304-.442.437-.686-.242.15-.453.315-.679.457zm1.453 18.786a1.64 1.64 0 00-.849-.426 1.623 1.623 0 00-.94.118 1.573 1.573 0 00-.665.584c-.14.228-.32.441-.453.685.242-.15.453-.315.68-.457.171-.16.382-.272.609-.323a1.2 1.2 0 011.165.292 1.562 1.562 0 001.164.496l.187-.591a1.144 1.144 0 01-.898-.378zm-21.987-2.191a1.236 1.236 0 01-1.078.307l.445.544.18-.063c.28-.119.522-.315.695-.567.149-.229.305-.442.438-.686-.242.158-.453.339-.68.465z" fill="#fff"/><path d="M469.542 129.122c-.422-.639-.937-1.222-1.406-1.821l-1.469-1.844a227.334 227.334 0 00-3.008-3.703c-2.024-2.443-4.04-4.902-6.11-7.313-.571-.662-1.141-1.324-1.727-1.97-.586-.646-1.281-1.324-1.891-2.001-.039-.04-.094 0-.062.063.484.614.914 1.284 1.398 1.907.485.622.992 1.268 1.508 1.899 1 1.229 2.016 2.458 3.032 3.672 2.016 2.364 4.024 4.799 6.086 7.155l1.735 1.962c.602.686 1.18 1.418 1.844 2.049a.054.054 0 00.028.008.052.052 0 00.027-.01.049.049 0 00.016-.024.041.041 0 00-.001-.029z" fill="#18181B"/><path opacity=".1" d="M482.303 91.566c-2.25 13.656-13.337 44.514-13.337 44.514l-12.056-14.728 22.753-42.702c3.07.19 3.938 5.02 2.64 12.916z" fill="#51525C"/><path d="M519.909 154.361a54.794 54.794 0 01-32.047 11.344 54.758 54.758 0 01-32.553-9.768c3.992-20.85 13.829-65.617 19.134-72.59 1.462-1.915 6.251-2.451 10.369-1.939 1.058.129 2.103.347 3.125.654h.102a7.62 7.62 0 012.344 1.15c8.532 6.872 23.002 49.723 29.526 71.149z" fill="#FFDC3F"/><path d="M515.401 154.361a1.56 1.56 0 01-.61.308 1.272 1.272 0 01-1.164-.355 1.604 1.604 0 00-1.774-.307 1.479 1.479 0 00-.664.583c-.162.22-.314.449-.453.685.242-.149.453-.307.68-.457.176-.16.388-.276.617-.339a1.203 1.203 0 011.141.308 1.64 1.64 0 001.774.37c.275-.119.511-.316.679-.567.149-.229.321-.441.453-.686-.242.15-.453.315-.679.457zm-33.715 8.416c-.183.152-.4.258-.633.307a1.233 1.233 0 01-1.14-.354 1.551 1.551 0 00-1.797-.315 1.656 1.656 0 00-.657.591c-.148.212-.305.417-.453.662a6.25 6.25 0 00.68-.45c.184-.143.39-.254.609-.331a1.248 1.248 0 011.164.316 1.562 1.562 0 001.275.504 1.562 1.562 0 001.179-.701c.14-.229.304-.442.429-.686-.226.134-.429.292-.656.457zm11.97-19.487c-.183.152-.4.257-.633.307a1.234 1.234 0 01-1.14-.354 1.56 1.56 0 00-1.798-.316 1.667 1.667 0 00-.656.591c-.148.213-.305.418-.453.662a6.39 6.39 0 00.68-.449c.184-.143.39-.255.609-.331a1.248 1.248 0 011.164.315 1.556 1.556 0 002.454-.197c.14-.228.305-.441.43-.685-.227.134-.43.291-.657.457zm-31.855 2.112a1.197 1.197 0 01-.617.307 1.224 1.224 0 01-1.156-.339 1.56 1.56 0 00-1.774-.331c-.268.137-.496.34-.664.591-.115.158-.224.315-.328.473.003.047.003.095 0 .142a7.31 7.31 0 00.586-.386 1.42 1.42 0 01.609-.331 1.198 1.198 0 011.149.315 1.643 1.643 0 001.773.37c.276-.119.512-.316.68-.567.141-.229.32-.441.453-.686-.242.134-.484.292-.711.442zm14.486-28.778a1.262 1.262 0 01-.617.307 1.18 1.18 0 01-1.141-.354 1.629 1.629 0 00-1.789-.308 1.575 1.575 0 00-.664.583c-.141.229-.321.442-.453.686.242-.15.453-.315.679-.457.172-.16.382-.272.61-.323a1.196 1.196 0 011.164.291 1.558 1.558 0 002.453-.197c.141-.228.305-.441.438-.685-.242.15-.453.307-.68.457zm-3.211-18.833c-.178.151-.39.257-.617.307a1.178 1.178 0 01-1.141-.355 1.637 1.637 0 00-1.789-.307 1.559 1.559 0 00-.664.583l-.18.26c0 .095-.055.197-.086.3l.492-.331c.171-.16.382-.272.61-.323a1.19 1.19 0 011.164.291 1.553 1.553 0 002.453-.197c.149-.228.305-.441.438-.685-.243.15-.454.315-.68.457zm24.596-.71c-.176.15-.385.256-.609.308a1.186 1.186 0 01-1.149-.355 1.634 1.634 0 00-1.789-.307 1.565 1.565 0 00-.664.583c-.141.229-.32.441-.453.686.242-.15.453-.308.679-.457.174-.162.387-.274.618-.323a1.187 1.187 0 011.156.291 1.565 1.565 0 001.274.504 1.55 1.55 0 001.179-.7c.149-.23.305-.442.438-.687-.242.15-.453.3-.68.458zm-32.097 62.584c-.062-.276-.094-.536-.164-.788-.068.259-.12.522-.156.788a1.478 1.478 0 01-.211.669 1.173 1.173 0 01-.907.591c.274.126.547.252.821.363.253-.187.446-.445.555-.741.097-.283.118-.588.062-.882zm33.886-47.47c-.062-.26-.093-.52-.156-.788a6.408 6.408 0 00-.164.788 1.534 1.534 0 01-.211.686 1.205 1.205 0 01-1.031.607 1.55 1.55 0 00-.909.264 1.57 1.57 0 00-.591.744 1.313 1.313 0 00-.078.875c.046.276.078.536.14.788.075-.258.13-.521.164-.788.027-.232.104-.456.227-.654a1.2 1.2 0 011.062-.567c.324-.008.637-.113.902-.301.264-.188.467-.451.583-.755.09-.291.111-.598.062-.899zm-23.596 19.787a6.574 6.574 0 00-.156-.788c-.07.26-.102.52-.164.788a1.593 1.593 0 01-.195.67 1.196 1.196 0 01-1.032.599 1.668 1.668 0 00-1.516 1.008 1.603 1.603 0 00-.078.875c.039.265.091.528.157.788.071-.259.126-.522.164-.788a1.36 1.36 0 01.226-.646 1.161 1.161 0 011.063-.567 1.553 1.553 0 001.254-.582 1.575 1.575 0 00.308-1.357h-.031zm8.595-46.87c-.047-.284-.086-.544-.149-.788-.068.259-.12.522-.156.788a1.777 1.777 0 01-.211.662 1.2 1.2 0 01-1.031.606 1.617 1.617 0 00-1.5 1.01c-.119.28-.154.59-.102.89.063.26.102.52.164.788.078-.276.11-.536.164-.788.017-.236.092-.464.219-.662a1.231 1.231 0 011.07-.575 1.62 1.62 0 001.485-1.056c.091-.286.105-.59.039-.883l.008.008zm24.596 40.637a1.882 1.882 0 01-.617.347 1.248 1.248 0 01-1.164-.315 1.627 1.627 0 00-1.758-.371 1.465 1.465 0 00-.688.568c-.148.228-.312.441-.453.685.242-.15.453-.307.68-.457.176-.15.385-.255.609-.307.208-.042.423-.031.626.031s.388.173.539.323a1.617 1.617 0 001.789.316 1.75 1.75 0 00.664-.591c.14-.229.305-.442.43-.678-.235.142-.438.307-.665.449h.008zm3.219 16.777a1.476 1.476 0 01-.648-.229 1.217 1.217 0 01-.563-1.08 1.653 1.653 0 00-1.047-1.497 1.735 1.735 0 00-.89-.047c-.258.047-.516.087-.782.15.258.066.519.118.782.157.238.025.469.097.679.213a1.228 1.228 0 01.594 1.04 1.627 1.627 0 00.985 1.513c.28.121.59.157.89.103.274-.063.532-.103.782-.166a6.293 6.293 0 00-.782-.157zm-48.895-15.485a1.555 1.555 0 01-.649-.212 1.227 1.227 0 01-.563-1.072 1.723 1.723 0 00-.296-.914c-.11.449-.211.89-.313 1.339a1.65 1.65 0 00.945 1.104c.279.11.582.137.876.078.263-.038.523-.09.781-.157-.219-.071-.477-.103-.75-.166h-.031zm26.956 1.624a1.674 1.674 0 01-.649-.213 1.243 1.243 0 01-.563-1.072 1.646 1.646 0 00-1.046-1.497 1.407 1.407 0 00-.876-.063c-.273.063-.531.094-.781.158.256.072.518.128.781.165.234.013.461.08.665.197a1.234 1.234 0 01.593 1.04 1.676 1.676 0 001 1.529c.279.11.582.137.876.079.263-.038.524-.093.781-.166-.219-.063-.477-.094-.719-.157h-.062zm-13.08 21.733a1.786 1.786 0 01-.664-.229 1.27 1.27 0 01-.563-1.079 1.625 1.625 0 00-.295-.909 1.605 1.605 0 00-1.627-.652c-.273.071-.531.103-.781.166.258.079.516.11.781.165.235.013.463.083.664.205a1.255 1.255 0 01.61 1.048 1.586 1.586 0 00.562 1.243 1.547 1.547 0 001.313.333c.264-.038.525-.093.781-.165-.234-.016-.492-.079-.75-.126h-.031zm19.533 8.313a1.566 1.566 0 01-.664-.228 1.25 1.25 0 01-.562-1.08 1.647 1.647 0 00-.299-.913 1.62 1.62 0 00-.756-.584 1.638 1.638 0 00-.867-.048c-.258.048-.532.087-.782.15.258.068.518.12.782.158.233.026.458.099.664.213a1.247 1.247 0 01.609 1.04 1.58 1.58 0 00.985 1.513c.28.121.59.156.89.102.258-.063.516-.102.782-.165a7.733 7.733 0 00-.782-.158zm-11.72-51.385a1.556 1.556 0 01-.648-.229 1.21 1.21 0 01-.425-.464 1.24 1.24 0 01-.138-.616 1.687 1.687 0 00-.303-.905 1.668 1.668 0 00-.744-.592 1.678 1.678 0 00-.875-.047 7.423 7.423 0 00-.781.165c.273.064.531.095.781.15.233.021.46.09.664.205a1.264 1.264 0 01.594 1.048c.001.323.097.639.274.908.178.269.431.48.726.605.277.116.581.148.875.095.274-.063.532-.095.782-.166a6.373 6.373 0 00-.758-.157h-.024z" fill="#fff"/><path d="M500.314 92.007c15.064 24.648 28.776 52.008 23.76 59.013-4.047 5.642-40.746 20.756-52.982 21.702-3.907.299-13.525-28.557-7.095-30.89 1.829-.662 31.668-6.414 31.847-7.092.579-2.238-3.43-17.281-7.125-34.428-4.759-22.08 5.227-18.738 11.595-8.305z" fill="#F68420"/><path d="M449.45 146.931c1.82-.662 2.898-2.112-.368-3.208-3.266-1.095-17.103-2.632-16.165-7.454.937-4.823 20.142-1.474 25.737-.134a22.397 22.397 0 0113.571 9.7c-8.922.536-15.751.962-22.775 1.096z" fill="#F68420"/><path d="M439.098 133.739a46.807 46.807 0 015.555-.11c1.859.055 3.703.229 5.547.465a43.455 43.455 0 0110.767 2.734c-.914-.173-1.797-.433-2.711-.583-.914-.15-1.805-.378-2.711-.536-1.813-.299-3.626-.614-5.47-.835-1.844-.221-3.648-.441-5.469-.638-.914-.095-1.828-.181-2.75-.252-.922-.071-1.829-.158-2.758-.245zm-28.548 9.133l-.007 2.868 63.546.157.007-2.868-63.546-.157z" fill="#18181B"/><path d="M410.547 142.864l-.008 2.876 43.2.103-2.172-2.876-41.02-.103z" fill="#18181B"/><path d="M448.824 145.835l-61.937-.157-5.055-42.434 61.936.157 5.056 42.434z" fill="#18181B"/><path d="M419.095 124.551a3.746 3.746 0 01-1.063 2.685 3.666 3.666 0 01-2.648 1.106 3.84 3.84 0 01-2.682-1.124 3.91 3.91 0 01-1.147-2.69 3.758 3.758 0 011.069-2.685 3.675 3.675 0 012.651-1.106 3.838 3.838 0 012.679 1.124 3.902 3.902 0 011.141 2.69z" fill="#fff"/><path d="M471.013 172.722c-10.938.622-26.612-1.001-36.808-8.117a6.2 6.2 0 01-2.461-3.207c-4.626-3.105-4.563-6.241-4.563-6.241-3.43-4.231-2.93-7.423-2.93-7.423s-5.392-3.711-3.712-7.368c1.875-4.113 9.079 1.899 15.049 2.758 13.673 1.97 33.933 2.924 37.933 3.097l-2.508 26.501z" fill="#F68420"/><path d="M448.464 155.323a88.663 88.663 0 01-11.877-2.412c-4.281-1.324-8.18-3.317-12.204-5.256a.113.113 0 00-.077-.003.114.114 0 00-.061.049.109.109 0 00-.012.077c.005.027.019.05.04.066 6.736 4.665 16.018 7.455 24.167 7.66.195.008.227-.15.024-.181zm.025 8.494c-3.907-.859-10.665-2.419-21.252-8.802 0 0-.086 0-.047.055a41.935 41.935 0 0021.26 8.936c.242.032.297-.102.039-.189zm-.078 4.571c-6.524-1.718-10.423-3.633-16.642-7.029 0 0-.078 0-.039.063 6.664 4.602 9.602 5.516 16.658 7.202.242.055.281-.173.023-.236z" fill="#18181B"/><path d="M493.329 127.751l30.081.788s-15.79-28.691-24.526-39.4c-9.102-11.127-15.353-10.339-12.118 8.494a303.083 303.083 0 006.563 30.118z" fill="#FFDC3F"/><path d="M515.752 115.127c-.132 0-.265 0-.398-.071a1.652 1.652 0 01-.664-.221 1.264 1.264 0 01-.563-1.079 1.652 1.652 0 00-.296-.91 1.626 1.626 0 00-.751-.587 1.68 1.68 0 00-.875-.064c-.273.063-.531.095-.781.166.257.069.518.121.781.158.236.014.464.087.664.212a1.237 1.237 0 01.618 1.04c-.01.324.079.643.255.914.176.27.431.48.729.599.279.118.587.148.883.087l.484-.094a2.25 2.25 0 00.305-.071l-.391-.079zm-6.703 10.622a1.897 1.897 0 01-.618.347 1.248 1.248 0 01-1.164-.315 1.623 1.623 0 00-1.758-.371 1.462 1.462 0 00-.687.568c-.149.228-.313.441-.454.685.243-.15.454-.307.68-.457a1.44 1.44 0 01.61-.307c.208-.042.422-.031.625.031s.388.173.539.323a1.621 1.621 0 001.789.316 1.75 1.75 0 00.664-.591c.141-.229.305-.442.43-.678-.227.142-.43.307-.656.449zm-1.86-24.688a1.426 1.426 0 00-.32.489 1.716 1.716 0 00-.063.89c.038.265.09.528.156.788.073-.259.128-.522.164-.788.02-.234.098-.459.227-.654.051-.078.112-.149.18-.213l-.344-.512zm-7.727 11.134c-.063-.26-.094-.52-.157-.788a6.447 6.447 0 00-.164.788 1.521 1.521 0 01-.211.686 1.204 1.204 0 01-1.031.607 1.55 1.55 0 00-.909.264 1.575 1.575 0 00-.591.744 1.319 1.319 0 00-.078.875c.047.276.078.536.14.788.075-.258.13-.521.164-.788.027-.232.104-.456.227-.654a1.207 1.207 0 011.063-.567c.323-.008.637-.113.901-.301s.467-.451.583-.755c.09-.291.111-.598.063-.899zm-1.79-15.113c-.176.15-.385.255-.609.307a1.186 1.186 0 01-1.149-.355 1.634 1.634 0 00-1.789-.307 1.566 1.566 0 00-.664.583c-.141.229-.32.441-.453.686.242-.15.453-.308.68-.457.173-.162.386-.274.617-.323a1.187 1.187 0 011.156.291 1.566 1.566 0 001.274.504 1.55 1.55 0 001.18-.7c.148-.23.304-.442.437-.686-.242.15-.453.299-.68.457z" fill="#fff"/><path d="M518.588 123.543c-.782-.103-1.563-.095-2.29-.126l-2.344-.103c-1.562-.063-3.125-.11-4.75-.142-3.126-.063-6.321-.141-9.478-.149h-2.609c-.868 0-1.829.102-2.743.126-.055 0-.047.079 0 .086.781.04 1.563.142 2.344.19.781.047 1.61.078 2.414.102 1.563.047 3.144.081 4.743.102 3.125.04 6.251.095 9.376.071h2.61c.906 0 1.836 0 2.742-.055.024-.023.031-.094-.015-.102z" fill="#18181B"/><path d="M513.434 112.258c-1.07-1.836-2.086-3.695-3.125-5.516-1.195-2.096-2.344-4.231-3.469-6.304 0-.055.055-.102.094-.055 1.367 2.23 6 9.638 6.75 10.898 2.196 3.68 4.391 7.36 6.548 11.032 1.211 2.073 2.563 4.484 3.758 6.564.086.15-2.344 0-3.641-.157-.062 0-.148-.221-.07-.221 1.203 0 2.82-.102 2.984-.087a536.212 536.212 0 01-6.5-10.535 1059.632 1059.632 0 01-3.329-5.619zm-23.817 1.324a8.96 8.96 0 01-1.25-3.27 19.228 19.228 0 001.149 2.924c-.086-.426-.164-.844-.25-1.269-.297-1.521-.602-3.042-.829-4.578h.04c.703 2.616 1.281 5.264 1.922 7.88.64 2.616 1.273 5.342 1.906 8.014.344 1.457.695 2.915 1.008 4.381.484.047.867.047 1.297.094.029 0 .057.012.077.033.021.02.032.049.032.078a.11.11 0 01-.109.11 9.095 9.095 0 01-1.633-.063c-1.352-4.704-2.383-9.519-3.36-14.334z" fill="#18181B"/><path d="M476.704 94.04c3.774.607 9.704-5.587 11.868-10.402.149-.33-.578-3.64-1.281-7.706a103.912 103.912 0 01-1.008-7.762l-15.525 5.114a40.943 40.943 0 012.258 9.645c.032.349.032.7 0 1.048v.173c-.211 1.97.039 9.307 3.688 9.89z" fill="#F68420"/><path d="M485.189 68.556c-.211 3.404-1.563 14.657-10.579 15.54-.546.05-1.095.05-1.641 0a1.672 1.672 0 000-.174 5.819 5.819 0 000-1.056 41.057 41.057 0 00-2.203-9.582l14.423-4.728z" fill="#18181B"/><path d="M483.826 47.445c2.977 5.114 3.844 21.733.781 26.225-4.422 6.501-13.532 9.212-19.486 3.42-5.774-5.618-6.532-27.304-2.946-31.575 5.29-6.288 17.283-5.627 21.651 1.93z" fill="#F68420"/><path d="M471.123 61.086c0-.047.093.047.093.094 0 1.12.25 2.364 1.274 2.711v.063c-1.242-.126-1.516-1.804-1.367-2.868z" fill="#18181B"/><path d="M472.045 59.888c1.782-.244 2.125 3.365.477 3.585-1.649.22-1.961-3.412-.477-3.585zm-7.51 1.576c0-.04-.086.063-.078.11.141 1.111.117 2.412-.844 2.876v.063c1.219-.26 1.235-1.985.922-3.05z" fill="#18181B"/><path d="M463.437 60.432c-1.797 0-1.562 3.648.071 3.617 1.633-.032 1.429-3.649-.071-3.617zm9.857-2.364a13.04 13.04 0 01-1.43-.355 2.372 2.372 0 01-1.39-.638.79.79 0 010-.938 1.872 1.872 0 011.875-.378 2.776 2.776 0 011.695 1.04.79.79 0 01-.286 1.211.775.775 0 01-.464.058zm-11.415.685c.469-.147.93-.318 1.383-.512.51-.112.971-.389 1.312-.788a.792.792 0 00-.133-.922 1.886 1.886 0 00-1.898-.173 2.746 2.746 0 00-1.563 1.229.796.796 0 00.048.898.776.776 0 00.851.268zm11.082 12.427c-.242.291-.476.678-.875.788a2.915 2.915 0 01-1.225-.172.04.04 0 00-.015-.001.035.035 0 00-.014.005.038.038 0 00-.019.04c.001.01.007.02.015.025a1.516 1.516 0 001.469.473 1.199 1.199 0 00.781-1.072.071.071 0 00.014-.054.072.072 0 00-.131-.032z" fill="#18181B"/><path d="M471.467 67.957a3.831 3.831 0 01-.972 1.216c-.403.333-.87.58-1.372.723a4.82 4.82 0 01-1.344.189 1.496 1.496 0 01-.266 0h-.242a.282.282 0 01-.25-.229.51.51 0 010-.11v-.11c-.109-.86-.148-2.175-.148-2.175-.297.189-1.813 1.064-1.837.614-.132-3.735-.289-7.88.36-11.646a.103.103 0 01.101-.103.102.102 0 01.102.103c.274 3.585-.078 7.194.141 10.803a6.388 6.388 0 011.719-.717c.125 0 0 2.537.117 2.924 1.445.047 2.484-.497 3.781-1.576.079-.095.172 0 .11.094zM464.7 49.644a6.277 6.277 0 002.705 1.626 6.236 6.236 0 003.147.1 6.379 6.379 0 002.85-1.488 6.459 6.459 0 001.775-2.697c0-.063.118-.039.094 0a6.369 6.369 0 01-1.658 2.975 6.291 6.291 0 01-2.944 1.683 6.402 6.402 0 01-3.307-.249 6.453 6.453 0 01-2.748-1.871c-.086-.079 0-.181.086-.079zm4.986-14.042a6.687 6.687 0 013.913-.066 6.736 6.736 0 013.291 2.138 9.315 9.315 0 011.969 4.216.048.048 0 01-.047.047.044.044 0 01-.033-.014.047.047 0 01-.014-.033 8.574 8.574 0 00-1.748-3.37 8.48 8.48 0 00-3.026-2.272 5.606 5.606 0 00-5.198.45 5.671 5.671 0 00-1.86 1.954 5.726 5.726 0 00-.755 2.6.119.119 0 01-.114.088.118.118 0 01-.113-.088 5.943 5.943 0 01.981-3.421 5.863 5.863 0 012.754-2.23zm-18.942 7.808a7.599 7.599 0 012.93-4.317c2.001-1.466 4.391-1.443 6.759-1.372a.055.055 0 01.034.052.056.056 0 01-.009.03.055.055 0 01-.025.02c-2.024-.054-4.071 0-5.845 1.096a7.525 7.525 0 00-3.172 3.885 7.37 7.37 0 00.187 5.099 7.288 7.288 0 003.446 3.735 7.31 7.31 0 005.837.173c.07 0 .133.079.055.11a7.335 7.335 0 01-7.679-1.098 7.463 7.463 0 01-2.281-3.352 7.524 7.524 0 01-.198-4.06h-.039z" fill="#18181B"/><path d="M484.587 48.241s-.742-5.035-2.18-6.47c-1.438-1.433-4.352-1.536-4.352-1.536s-2.063-4.137-6.141-4.058c-3.665.079-5.845 3.538-5.845 3.538s-5.469-4.594-10.985-1.206c-5.227 3.255-3.751 11.545 1.719 13.751 3.906 1.576 8.712-2.183 8.712-2.183.492 0 5.727 2.687 9.173-2.111 0 0 3.641 2.364 5.469.323 0 0 2.727 1.016 4.43-.048z" fill="#18181B"/><path opacity=".2" d="M486.493 61.535c-1.024-.615-3.227-4.728-4.219-6.407-.915-1.576-1.563-8.077-1.836-11.339a11.537 11.537 0 013.375 3.656c1.578 2.672 2.555 8.503 2.68 14.09z" fill="#18181B"/><path d="M483.52 61.236s2.469-5.958 5.078-5.178c2.61.78 1.524 8.873-.992 10.497a2.831 2.831 0 01-2.17.523 2.827 2.827 0 01-1.877-1.217l-.039-4.626z" fill="#F68420"/><path d="M488.233 58.367a.037.037 0 01.016.015.04.04 0 010 .042.037.037 0 01-.016.014c-1.75 1.206-2.344 3.215-2.68 5.232a1.58 1.58 0 01.887-.98 1.554 1.554 0 011.316.05.062.062 0 01.041.06.063.063 0 01-.041.06 1.723 1.723 0 00-1.037.224 1.748 1.748 0 00-.713.791 8.186 8.186 0 00-.57 1.734c-.055.189-.383.165-.36-.047v-.048c-.57-2.474.586-6.32 3.157-7.147zm-15.272 25.397l5.157 8.787 9.712-13.538 3.82 3.286s-8.422 20.44-8.594 19.605l-5.009-7.446-4.688 6.422-1.648-14.098 1.25-3.018z" fill="#18181B"/><path d="M472.152 93.961c-.195-2.364-.461-4.689-.547-7.029 0-.079.118-.134.149-.047.781 2.167 1.5 11.103 1.828 13.223.196-.276 4.36-5.69 4.423-5.619 1.015 1.143 4.688 6.564 4.953 7.092 1.328-3.246 6.517-15.09 8.196-18.226a.08.08 0 11.149.063c-1.102 3.372-7.923 19.306-8.063 19.29a93.18 93.18 0 01-5.259-7.88c-.664 1.142-4.789 7.163-4.852 6.824a73.918 73.918 0 01-.977-7.69zm-382.048 31.15c5.524 6.02 14.556 7.88 22.354 7.832 7.946 0 16.791-1.402 23.698-5.61a19.362 19.362 0 007.329-7.557c1.734-3.436 1.734-6.919-.594-9.866-1.875-2.364-5.712-3.94-5.876-6.178-.164-2.238 1.563-4.216 1.907-6.446.609-3.814-1.563-6.485-4.329-8.739-6.508-5.35-5.375-13.088-9.626-20.015-2.414-3.94-8.97-11.032-19.533-6.855-4.024 1.576-6.571 5.595-7.978 9.645-1.64 4.775.18 10.764-1.922 15.382-1.789 3.94-4.766 4.728-6.454 8.88-.734 1.781-1 3.822 1.087 7.778.78 1.426 1.609 3.625 1.132 5.421-.672 2.49-3.422 3.799-4.18 6.399-1.008 3.538.555 7.273 2.985 9.929z" fill="#18181B"/><path d="M141.142 120.863c3.665-.882 4.891-6.193 2.344-8.668-1.609-1.576-3.907-2.206-5.508-3.774-2.641-2.585-.633-5.232.508-8.038 2.461-6.083-1.743-9.77-6.142-13.104-3.344-2.537-4.203-5.65-4.688-9.693 0-.063.102-.078.11 0 .5 2.963 1.117 5.871 3.336 8.07 1.797 1.78 4.11 2.915 5.868 4.775 2.938 3.152 3.524 6.682 1.883 10.598-.477 1.119-1.43 2.427-1.563 3.625-.32 2.837 1.844 4.129 3.907 5.359 1.562.953 3.328 2.001 4.031 3.829 1.055 2.758-1.156 6.761-4.008 7.274-.125 0-.195-.221-.078-.253z" fill="#18181B"/><path d="M139.356 123.858c2.172-1.576 4.548-3.018 5.712-5.563 1.719-3.767-.946-6.304-3.438-8.724-1.078-1.032-1.977-2.072-2.039-3.624-.094-2.364 1.437-4.413 1.562-6.738.258-5.555-5.328-8.495-8.305-12.34-2.977-3.845-4.298-8.668-5.641-13.396a.082.082 0 01.054-.102.083.083 0 01.102.055c1.758 5.996 3.907 11.591 8.516 15.973 3.188 3.057 6.595 6.374 5.563 11.221-.25 1.19-.843 2.301-1.07 3.483-.453 2.364.274 3.814 1.891 5.358 1.617 1.545 3.344 2.979 3.782 5.217.851 4.342-3.227 7.564-6.47 9.456a.194.194 0 01-.194-.07.2.2 0 01-.042-.099.205.205 0 01.017-.107zm-53.301-10.016c1.625-2.805 4.446-4.365 3.368-8.1-.782-2.569-2.344-4.547-2.016-7.36.242-2.364 1.563-4.224 3.125-5.879 2.008-2.096 4.274-3.845 5.641-6.47 1.5-2.875 2.016-6.138 2.555-9.282 0-.063.118-.055.11 0-.492 4.271-1.164 8.668-4.024 12.057-1.492 1.773-3.368 3.152-4.844 4.964-2.657 3.223-2.344 6.477-.782 10.094.72 1.655 1.368 3.326.782 5.13-.586 1.805-2.157 3.018-3.173 4.571-4.313 6.587 3.774 13.798 9.994 14.396.28 0 .289.465 0 .45-4.688-.316-9.86-4.13-11.267-8.668a7.425 7.425 0 01.531-5.903z" fill="#18181B"/><path d="M86.539 117.136c-.188-2.774 1.375-4.452 2.5-6.737 1.774-3.594-.656-6.769-1.227-10.355a9.034 9.034 0 01.227-3.517 8.99 8.99 0 011.555-3.157c1.844-2.648 4.32-4.641 5.758-7.612a18.263 18.263 0 001.563-10.244c0-.07.086-.07.094 0 .423 2.35.353 4.763-.206 7.084a17.155 17.155 0 01-3.037 6.39c-1.86 2.42-4.477 4.492-5.368 7.605-.937 3.294.899 6.068 1.563 9.204a7.15 7.15 0 01-.86 5.461c-.718 1.26-1.64 2.427-1.976 3.9a8.629 8.629 0 001.086 5.879c2.969 5.595 9.313 8.715 15.134 9.148.203 0 .219.347 0 .331a19.978 19.978 0 01-13.775-6.8 11.69 11.69 0 01-3.031-6.58z" fill="#18181B"/><path d="M108.972 112.913c4.336 17.777 14.845 45.396 24.112 45.247 8.469-.134 27.346-15.28 35.277-20.236 7.931-4.957-9.837-24.523-14.377-21.355-7.032 4.901-17.548 13.656-19.33 13.081-2.211-.717-5.032-6.218-17.666-22.419-5.172-6.635-9.86-1.883-8.016 5.682z" fill="#F68420"/><path d="M162.496 109.028c3.735-1.332 7.908-3.152 12.056-3.073 4.149.078 7.587 5.594 7.587 7.178 0 1.584-1.562 11.434-5.711 11.434s-1.641-7.573-1.797-8.439c-.157-.867-.313-1.978-1.102-1.9-.789.079-14.47 6.635-14.47 6.635l3.437-11.835z" fill="#F68420"/><path d="M162.758 109.603c.234 0 11.345-4.413 15.486-4.334 4.141.079 7.587 5.595 7.587 7.179 0 1.584-1.563 11.434-5.704 11.434s-1.649-7.573-1.805-8.44c-.156-.867-.313-1.978-1.094-1.891-.781.087-14.47 6.627-14.47 6.627v-10.575z" fill="#F68420"/><path d="M178.72 123.354a4.98 4.98 0 01-.696-2.467 8.746 8.746 0 01.157-2.671c.224-.753.391-1.523.5-2.301a4.639 4.639 0 00-.578-2.207c-.321-.591-.93-.386-1.454-.204-.771.295-1.522.64-2.25 1.032-.781.394-1.563.788-2.344 1.213-.829.396-1.633.843-2.406 1.34a.066.066 0 00-.023.036.058.058 0 00.006.041.062.062 0 00.03.03.058.058 0 00.041.003 21.008 21.008 0 002.102-.953c.781-.371 1.563-.741 2.344-1.096.781-.354 1.461-.709 2.211-1.024a2.33 2.33 0 011.094-.331c.313.071.469.859.539 1.111a3.923 3.923 0 01-.14 2.262 11.992 11.992 0 00-.43 2.285 6.225 6.225 0 00.172 2.183c.256.637.589 1.241.992 1.796.055.087.188 0 .133-.078z" fill="#18181B"/><path d="M149.609 120.564s11.494-10.559 13.885-12.655c4.797-4.208 25.002-12.53 27.815-12.837 2.813-.307 3.836 5.516-9.884 11.576-7.227 3.152-8.508 7.36-8.376 9.677.133 2.316 2.344 6.627 6.189 6.516 3.844-.11 6.36-5.784 9.907-6.414 3.547-.63 1.203 5.926-1.297 9.708a23.654 23.654 0 01-10.384 8.172c-3.336 1.261-13.666 5.752-13.666 5.752l-14.189-19.495z" fill="#F68420"/><path d="M184.027 120.123c-1.454 1.134-3.126 2.608-5.009 2.679-1.883.071-3.266-1.221-4.18-2.845a7.43 7.43 0 01-1.016-5.382 9.082 9.082 0 012.649-4.365 21.517 21.517 0 015.227-3.507c.078-.047 0-.165-.078-.126-1.781.788-7.298 3.081-8.407 7.998a7.594 7.594 0 001.078 5.516c.852 1.576 2.102 3.042 3.969 3.199 2.282.182 4.243-1.686 5.884-3.081.07-.094-.032-.149-.117-.086z" fill="#18181B"/><path d="M149.611 119.106l17.189 26.903s-27.268 15.405-34.98 12.923c-7.712-2.482-19.361-24.791-24.159-44.357-4.797-19.566 7.11-12.072 11.72-6.028s14.65 20.031 15.197 19.85c.547-.181 15.033-9.291 15.033-9.291z" fill="#51525C"/><path d="M158.967 150.138a204.482 204.482 0 01-5.469 2.679l-14.9-26.792c1.562-.962 3.414-2.112 5.133-3.152 4.657 8.329 10.361 18.518 15.236 27.265zm-7.621 3.656c-.594.26-1.196.528-1.798.788l-14.657-26.335a59.6 59.6 0 001.64-.977c4.61 8.266 10.08 18.061 14.815 26.524z" fill="#E4E4E7"/><path d="M147.58 155.402c-6.203 2.553-12.306 4.412-15.486 3.609l-.273-.079c-7.712-2.49-19.361-24.783-24.167-44.357a30.735 30.735 0 01-1.109-8.037v-.292a4.508 4.508 0 010-.465 1.986 1.986 0 010-.189c.01-.14.028-.28.055-.418l40.98 50.228zm9.622-12.041a331.176 331.176 0 00-1.649-2.853c-1.109-1.899-7.766-13.167-10.391-16.587-.071-.095-.211 0-.164.11 1.836 3.94 8.735 14.972 9.884 16.824.586.93 1.172 1.86 1.773 2.79.602.929 1.313 1.78 1.907 2.718.062.087.211 0 .156-.079-.547-.953-.977-1.97-1.516-2.923z" fill="#18181B"/><path d="M127.24 144.74l2.868 19.826a54.806 54.806 0 01-28.659 8.714 54.77 54.77 0 01-28.949-7.674c2.89-15.137 9.86-44.427 22.659-59.321 2.125-2.474 9.376-9.188 18.486-1.52 4.454 3.735 15.127 19.574 16.486 26.138 1.36 6.564-2.891 13.837-2.891 13.837z" fill="#51525C"/><path d="M118.769 143.211a35.797 35.797 0 00-9.29 1.576c-3.031.867-9.735 3.546-11.415 4.208-.047 0 0 .079 0 .063a57.068 57.068 0 006.454-1.954 124.726 124.726 0 019.016-2.742 41.977 41.977 0 015.227-.954.098.098 0 00.102-.094.1.1 0 00-.094-.103zm5.542 1.615a28.69 28.69 0 00-9.758.867c-.04 0 0 .079 0 .071 1.617-.189 3.226-.386 4.852-.52 1.625-.134 3.266-.221 4.899-.331a.04.04 0 00.022.006.05.05 0 00.039-.021.044.044 0 00.007-.022.045.045 0 00-.017-.041.041.041 0 00-.021-.01.06.06 0 00-.023.001zm3.369-20.677a23.718 23.718 0 00-1.797-4.657s-.047 0 0 0a33.711 33.711 0 011.516 4.058 56.366 56.366 0 00-3.751-5.799h-.046c3.82 6.398 7.633 13.813 5.813 21.496a17.369 17.369 0 01-.907 2.798 13.319 13.319 0 01-1.437 2.726c-.047.063.195.323.25.26a14.49 14.49 0 001.469-2.19c.457-.783.831-1.613 1.117-2.475.566-1.754.831-3.593.781-5.437a24.295 24.295 0 00-3.008-10.78z" fill="#18181B"/><path d="M92.697 121.305c3.055 18.124 18.142 52.008 27.971 55.215 11.385 3.696 50.881-9.038 58.6-14.767 3.087-2.277-13.36-22.348-17.189-20.922-16.087 5.966-30.339 9.031-32.41 7.613-3.187-2.183-16.158-20.93-24.596-32.561-10.571-14.617-13.751-2.71-12.376 5.422z" fill="#F68420"/><path d="M178.283 162.328c1.758-.63 13.853-9.456 17.424-13.64a53.648 53.648 0 009.298-14.547c3.594-8.431 5.282-14.601 4.414-17.336-1-3.215-1.289-3.735-9.657 10.244-4.727 7.92-9.243 8.81-13.157 8.731a59.856 59.856 0 00-27.793 6.304s12.713 22.647 19.471 20.244z" fill="#F68420"/><path d="M215.42 106.27l-20.893 26.595a2.475 2.475 0 01-2.523.788l-14.565-4.886a1.067 1.067 0 01-.733-1.343c.054-.183.157-.348.296-.477l20.893-26.595a2.471 2.471 0 012.523-.835l14.572 4.885a1.069 1.069 0 01.759 1.385 1.07 1.07 0 01-.329.483z" fill="#18181B"/><path d="M213.686 104.016l-14.572-4.886a2.472 2.472 0 00-2.523.836l-20.893 26.587c-.139.13-.241.294-.296.477a1.087 1.087 0 00.248 1.058c.131.139.296.24.478.293l14.571 4.886a2.481 2.481 0 002.524-.836l20.893-26.603a1.073 1.073 0 00.308-1.032 1.074 1.074 0 00-.738-.78zm-20.744 27.273a2.344 2.344 0 01-2.344.788l-13.033-4.374c-.734-.244-.875-1.008-.328-1.71l19.455-24.759c1.118-1.426 1.766-1.292 2.493-1.048l2.617.875c.149.047.156.244 0 .433l-.062.087c-.344.441-.071.536.265.646l6.032 2.025a.701.701 0 00.961-.236l.071-.087a.568.568 0 01.547-.244l2.609.875c.727.244 1.172.63.141 1.938l-19.424 24.791z" fill="#18181B"/><path d="M206.309 102.992l-1.649-.552c-.054 0-.07-.071 0-.126a.195.195 0 01.083-.052.178.178 0 01.097-.003l1.641.551a.077.077 0 01.028.026c.006.012.01.024.01.037a.079.079 0 01-.01.037.077.077 0 01-.028.026.151.151 0 01-.172.056z" fill="#fff"/><path d="M212.399 106.53l-19.455 24.759a2.325 2.325 0 01-2.344.788l-13.033-4.374c-.735-.244-.875-1.008-.328-1.71l19.455-24.759c1.117-1.426 1.766-1.292 2.5-1.048l2.61.875c.148.047.156.244 0 .433l-.071.087c-.343.441-.07.536.266.646l6.04 2.025a.697.697 0 00.961-.236l.062-.087a.577.577 0 01.547-.244l2.61.875c.805.244 1.211.662.18 1.97z" fill="#fff"/><path d="M212.396 106.53l-1.445 1.844-15.681-5.256 1.453-1.852c1.117-1.427 1.766-1.293 2.492-1.048l2.618.874c.148.048.156.245 0 .434l-.071.087c-.343.441-.07.535.266.646l6.032 2.025a.709.709 0 00.969-.237l.062-.086a.573.573 0 01.547-.245l2.61.875c.773.213 1.18.631.148 1.939z" fill="#FFDC3F"/><path d="M197.57 102.747l-.164-.543.766-.229.023.095-.632.189.132.441-.125.047zm13.39 3.807a.144.144 0 01-.071.047.14.14 0 01-.086 0c-.047 0-.063-.063 0-.11a.153.153 0 01.072-.048.154.154 0 01.085 0c.024.016.04.063 0 .111zm-.224.283a.14.14 0 01-.149.056.069.069 0 01-.024-.024.066.066 0 01-.008-.032c0-.011.003-.022.008-.032a.059.059 0 01.024-.023.154.154 0 01.071-.05.149.149 0 01.086-.005c.01.006.017.014.022.025.006.01.008.021.007.032a.072.072 0 01-.011.032.06.06 0 01-.026.021zm-.222.331a.17.17 0 01-.157.048c-.055 0-.063-.063 0-.111a.157.157 0 01.157-.047.063.063 0 01.019.024c.005.01.007.02.007.031a.067.067 0 01-.007.031.063.063 0 01-.019.024zm-9.574-5.675h-.039a.243.243 0 00-.171-.172.535.535 0 00-.312 0v-.047h.374l.078.055c.017.008.03.022.039.039a.215.215 0 010 .062l.031.063zm-.53-.038v-.047a.534.534 0 01.218 0 .227.227 0 01.116.052.23.23 0 01.072.104h-.071a.169.169 0 00-.117-.117.32.32 0 00-.218.008z" fill="#fff"/><path d="M200.677 101.581h-.071a.085.085 0 00-.024-.035.081.081 0 00-.039-.02.149.149 0 00-.102 0v-.047c.079-.016.212.016.236.102zm-2.251-.843a.2.2 0 01.181-.055.07.07 0 01.023.028.072.072 0 01.008.035.072.072 0 01-.008.035.07.07 0 01-.023.028.157.157 0 01-.181.055c-.023 0-.039-.071 0-.126zm.328.126a.165.165 0 01.083-.054.164.164 0 01.098-.001.07.07 0 01.023.028.073.073 0 010 .07.07.07 0 01-.023.028.171.171 0 01-.181.056c-.023-.032-.039-.087 0-.127zm.332.095a.179.179 0 01.083-.055.164.164 0 01.098 0c.01.007.018.016.023.027a.074.074 0 010 .071.07.07 0 01-.023.028.171.171 0 01-.181.055c-.023-.016-.039-.071 0-.126zm.324.11a.174.174 0 01.181-.055c.055 0 .071.071 0 .126a.175.175 0 01-.083.053.172.172 0 01-.098.002.087.087 0 01-.023-.027.09.09 0 01-.008-.036c0-.012.003-.024.008-.035a.091.091 0 01.023-.028zm.332.11a.163.163 0 01.079-.053.159.159 0 01.094-.002c.063 0 .079.071.04.126a.19.19 0 01-.083.054.192.192 0 01-.098.002.077.077 0 01-.031-.022.072.072 0 01-.018-.033.081.081 0 01.017-.072zm12.071 4.484l-1.196-.402.5-.631 1.196.394-.5.639z" fill="#fff"/><path d="M211.75 105.095l-.547-.181-.18.229.547.181.18-.229zm.141.308l-.079-.023.15-.182.078.024-.149.181z" fill="#fff"/><path d="M179.848 126.577l-.125-.04-.375.489-.227-.079.195-.244-.398-.134-.188.252-.226-.079.383-.489-.117-.039.922-.307.156.67zm12.25 3.695l-1.305-.433.133-.166 1.297.434-.125.165zm-.321.41l-1.304-.441.132-.166 1.297.441-.125.166zm-.32.402l-1.297-.434.125-.165 1.297.433-.125.166zm-5.734-2.624l-.641.228-.094-.472.11-.032.078.386.523-.181.024.071z" fill="#E4E4E7"/><path d="M185.081 129.445a1.2 1.2 0 01-.375-.063.841.841 0 01-.562-.552.91.91 0 01.187-.827 1.43 1.43 0 011.493-.481.863.863 0 01.562.56.912.912 0 01-.187.827 1.454 1.454 0 01-1.118.536zm.352-1.174a.644.644 0 00-.492.22.191.191 0 00-.047.111.64.64 0 00.695-.182.195.195 0 00.047-.11.444.444 0 00-.203-.039z" fill="#E4E4E7"/><path d="M202.601 104.111a.715.715 0 01.711-.229.326.326 0 01.204.173s0 .063-.047.087c-.047.024-.094 0-.102 0a.22.22 0 00-.057-.075.227.227 0 00-.083-.043.432.432 0 00-.266 0 .412.412 0 00-.227.15.224.224 0 00-.054.204.205.205 0 00.148.142c.074.02.152.02.227 0 .047 0 .086 0 .086.04a.097.097 0 01-.027.052.092.092 0 01-.052.026.65.65 0 01-.328 0 .307.307 0 01-.133-.527zm.677.622l.476-.607a.118.118 0 01.055-.014c.019 0 .038.005.055.014a.08.08 0 01.015.017.046.046 0 01.006.023.043.043 0 01-.006.022.05.05 0 01-.015.017l-.196.244.305.103.188-.244a.12.12 0 01.109-.04c.006.005.012.01.015.017a.046.046 0 010 .045.041.041 0 01-.015.017l-.477.607a.112.112 0 01-.054.015.116.116 0 01-.055-.015.049.049 0 01-.015-.017.046.046 0 010-.045.041.041 0 01.015-.017l.188-.244-.297-.103-.188.245a.13.13 0 01-.109 0 .05.05 0 01-.005-.02c0-.007.002-.014.005-.02zm1.243.276l-.281-.095-.157.111a.105.105 0 01-.093 0 .053.053 0 01-.016-.02.06.06 0 010-.048.058.058 0 01.016-.019l.734-.512a.066.066 0 01.043-.015c.016 0 .031.005.043.015 0 0 .039 0 0 .055l-.219.686a.101.101 0 01-.038.044.11.11 0 01-.056.019.054.054 0 010-.056l.024-.165zm.039-.126l.086-.252-.266.189.18.063zm1.019-.079l-.187-.063-.43.552a.093.093 0 01-.051.016.093.093 0 01-.051-.016c-.039 0-.046-.048 0-.079l.43-.544-.18-.063s-.046-.047 0-.079a.11.11 0 01.055-.016c.02 0 .039.006.055.016l.492.166c.039 0 .047.047 0 .078a.116.116 0 01-.061.038.127.127 0 01-.072-.006z" fill="#fff"/><path d="M188.867 114.024l11.212 3.766 2.454-3.12-11.212-3.767-2.454 3.121z" fill="#51525C"/><path d="M201.113 118.137l-1.039-.347.75-.961.289 1.308z" fill="#51525C"/><path d="M201.411 115.048l-9.923-3.325.047-.063 9.923 3.333-.047.055zm-2.301-.37l-7.868-2.64.047-.055 7.868 2.639-.047.056zm.731 1.056l-9.111-3.05.047-.063 9.111 3.057-.047.056zm.57.598l-9.931-3.333.047-.055 9.931 3.325-.047.063zm-.258.316l-9.923-3.326.047-.063 9.923 3.334-.047.055zm-3-.599l-7.173-2.404.04-.063 7.18 2.404-.047.063z" fill="#fff"/><path d="M183.074 121.399l11.212 3.759 2.454-3.121-11.212-3.758-2.454 3.12z" fill="#51525C"/><path d="M195.324 125.505l-1.039-.347.75-.961.289 1.308z" fill="#51525C"/><path d="M195.622 122.424l-9.923-3.333.047-.064 9.923 3.334-.047.063zm-2.313-.379l-7.868-2.632.047-.063 7.868 2.64-.047.055zm.747 1.064l-9.111-3.057.047-.063 9.111 3.057-.047.063zm.558.591l-9.923-3.333.047-.055 9.923 3.333-.047.055zm-.25.323l-9.93-3.333.046-.055 9.931 3.325-.047.063zm-3-.606l-7.18-2.404.046-.063 7.181 2.411-.047.056z" fill="#fff"/><path d="M205.997 111.92l-11.212-3.767 2.071-2.632 11.212 3.767-2.071 2.632z" fill="#FFDC3F"/><path d="M193.746 107.806l1.039.347.758-.953-1.797.606z" fill="#FFDC3F"/><path d="M205.349 109.059l-8.267-2.773.047-.056 8.266 2.774-.046.055zm1.41.883l-9.923-3.334.047-.055 9.923 3.326-.047.063zm-.254.315l-9.923-3.325.047-.063 9.923 3.333-.047.055zm-1.035.063l-9.142-3.073.047-.055 9.142 3.065-.047.063zm.535.583l-9.931-3.333.047-.055 9.931 3.325-.047.063zm-2.844-.552l-7.337-2.458.047-.063 7.337 2.458-.047.063z" fill="#fff"/><path d="M204.134 114.299l-11.212-3.766 1.531-1.947 11.212 3.759-1.531 1.954zm-12.255-4.113l1.039.347.75-.954-1.789.607z" fill="#FFDC3F"/><path d="M204.595 112.676l-9.915-3.325.047-.063 9.915 3.325-.047.063zm-2.012-.268l-8.157-2.742.046-.055 8.158 2.734-.047.063zm.57.591l-8.977-3.01.047-.063 8.977 3.01-.047.063zm-2.301-.37l-6.922-2.317.047-.063 6.922 2.325-.047.055z" fill="#fff"/><path d="M198.349 121.651l-11.212-3.758 2.164-2.75 11.212 3.758-2.164 2.75z" fill="#D1D1D6"/><path d="M186.098 117.546l1.039.347.758-.962-1.797.615z" fill="#D1D1D6"/><path d="M198.153 119.997l-9.376-3.144.047-.056 9.376 3.144-.047.056zm-1.015.071l-8.611-2.892.047-.063 8.611 2.892-.047.063zm.984-.891l-8.837-2.963.047-.055 8.837 2.963-.047.055zm1.219.008l-9.806-3.294.047-.055 9.806 3.286-.047.063zm-2.149 1.3l-8.915-2.986.047-.063 8.915 2.994-.047.055z" fill="#fff"/><path d="M192.88 128.609l-11.212-3.758 1.805-2.293 11.212 3.758-1.805 2.293z" fill="#FFDC3F"/><path d="M180.629 124.504l1.039.347.758-.962-1.797.615z" fill="#FFDC3F"/><path d="M193.646 126.632l-9.931-3.334.047-.055 9.93 3.333-.046.056zm-.258.323l-9.923-3.333.047-.056 9.923 3.326-.047.063zm-1.032.055l-9.141-3.065.047-.063 9.134 3.065-.04.063zm.532.583l-9.931-3.333.047-.055 9.931 3.325-.047.063zm-2.844-.551l-7.337-2.459.047-.055 7.337 2.458-.047.056z" fill="#fff"/><path d="M188.556 135.67c-4.04.063 9.095-8.211 9.298-12.852.203-4.642-4.282-3.152-7.814-.56-12.266 9.094-21.525 8.668-27.745 17.336-6.219 8.668 26.261-3.924 26.261-3.924z" fill="#F68420"/><path d="M176.339 130.02a32.079 32.079 0 00-7.555 2.987 19.668 19.668 0 00-5.469 5.161c-.063.087.054.205.125.118 3.312-4.105 8.219-6.162 12.931-8.148a.06.06 0 00.027-.03.072.072 0 00.003-.041.063.063 0 00-.023-.034.061.061 0 00-.039-.013z" fill="#18181B"/><path d="M130.556 147.356c3.125.859 25.041-5.201 25.041-5.201l12.306 30.007s-38.129 8.952-47.028 5.847c-8.899-3.105-22.76-33.608-27.245-51.33-4.212-16.658 1.406-27.533 13.197-10.244 0-.063 22.088 30.44 23.729 30.921z" fill="#51525C"/><path d="M160.932 173.675a601.348 601.348 0 01-8.595 1.71l-11.196-29.605c2.86-.646 5.852-1.387 8.352-2.025a8251.56 8251.56 0 0111.439 29.92zm-11.915 2.309c-.906.165-1.828.331-2.766.489l-11.165-29.472 2.68-.496c3.375 8.833 7.501 19.597 11.251 29.479z" fill="#E4E4E7"/><path d="M120.396 177.056c-7.454-3.854-16.65-24.011-18.424-27.966-1.133-2.538-2.164-5.107-3.18-7.691-2.031-5.17-3.906-10.402-5.688-15.658a.068.068 0 00-.013-.025.071.071 0 00-.048-.028.068.068 0 00-.029.002.08.08 0 00-.025.013.067.067 0 00-.019.022.075.075 0 00-.007.056 132.535 132.535 0 003.524 12.04 44.078 44.078 0 01-2.43-4.578c0-.079-.164 0-.132.055a25.198 25.198 0 002.836 5.303c1.398 3.94 2.977 7.88 4.743 11.702.507 1.095 11.141 25.791 19.478 28.084 2.899.788 12.814.079 14.916-.409.094 0 .117-.134 0-.134-2.852-.071-12.83.583-15.502-.788zm39.271-8.558l-1.125-3.097c-.781-2.064-5.352-14.342-7.344-18.171-.055-.103-.203 0-.18.079 1.117 4.2 5.985 16.311 6.798 18.313.414 1.024.836 2.041 1.265 3.057.43 1.017.977 1.994 1.399 3.018.047.103.203.055.164-.047-.367-1.032-.609-2.112-.977-3.152zm-4.066-26.319c-1.813.078-18.205 3.94-21.823 4.728a7.434 7.434 0 01-2.68.378 3.91 3.91 0 01-2.14-1.623c-1.18-1.356-13.994-18.44-14.924-19.283-.351-.315-.625-.378-.297.158.571.93 13.033 17.801 14.166 19.125 1.133 1.323 2.039 2.529 3.805 2.458.781 0 22.877-5.027 23.963-5.516.235-.063.211-.441-.07-.425z" fill="#18181B"/><path d="M103.387 103.906c.062 1.103 3.906 8.896 8.774 9.511 1.563.197 3.039-8.471 3.039-8.471l.251-.615 3.531-8.62-9.274-8.59-1.383-1.158s-.782 2.427-1.789 5.453c-.047.142-.094.276-.141.433-.047.158-.117.323-.164.489-.156.449-.313.906-.453 1.37-.11.348-.219.694-.321 1.065-.101.37-.219.733-.328 1.103a60.112 60.112 0 00-1.742 8.03z" fill="#F68420"/><path d="M106.555 91.408a18.817 18.817 0 003.036 7.445 18.62 18.62 0 005.855 5.47l3.532-8.62-9.275-8.59-1.383-1.15s-.781 2.427-1.765 5.445z" fill="#18181B"/><path d="M133.756 82.007c.204 16.359-9.493 18.329-12.993 18.368-3.18.04-13.994-.252-15.869-16.5-1.875-16.249 5.602-21.529 12.861-21.993 7.258-.465 15.806 3.758 16.001 20.125z" fill="#F68420"/><path d="M131.183 78.674c-.375-.071-.719-.197-1.078-.3a1.837 1.837 0 01-1.047-.512.586.586 0 01.039-.709 1.421 1.421 0 011.43-.26c.505.099.957.379 1.273.788.079.1.125.224.131.352a.621.621 0 01-.748.64zm-10.833-.102c.373-.039.743-.097 1.109-.174a1.81 1.81 0 001.094-.386.583.583 0 000-.71 1.445 1.445 0 00-1.39-.425 2.112 2.112 0 00-1.36.678.625.625 0 00.191.951.61.61 0 00.356.066zm1.967 4.01s-.086.048-.086.095c0 1.119-.188 2.364-1.204 2.726v.063c1.235-.126 1.469-1.828 1.29-2.884z" fill="#18181B"/><path d="M121.371 81.385c-1.765-.197-2.031 3.388-.39 3.577 1.64.19 1.875-3.412.39-3.577z" fill="#18181B"/><path d="M120.663 81.526c-.32.174-.656.513-1.031.52-.375.008-.735-.386-.993-.788h-.062c-.063.686.148 1.411.867 1.577.719.165 1.188-.426 1.406-1.111.04-.08-.023-.276-.187-.198zm8.155 1.096c0-.047.078.055.078.102-.125 1.103-.086 2.364.883 2.845v.063c-1.219-.268-1.258-1.986-.961-3.01z" fill="#18181B"/><path d="M129.899 81.542c1.781 0 1.625 3.601 0 3.593-1.625-.007-1.5-3.6 0-3.593z" fill="#18181B"/><path d="M130.625 81.81c.273.197.539.56.875.591.336.032.695-.33.961-.693h.054c0 .693-.265 1.395-.929 1.497-.665.102-1.016-.512-1.149-1.206-.023-.047.078-.275.188-.189zm-8.823 9.48c.234.291.453.685.843.788a2.93 2.93 0 001.219-.134s.063 0 .039.055a1.472 1.472 0 01-1.469.433 1.16 1.16 0 01-.742-1.08c-.008-.086.078-.102.11-.062zm4.86-3.727s.125 1.67.078 2.458c0 .071-.195.095-.461.095-.67.083-1.35-.02-1.967-.297a3.718 3.718 0 01-1.533-1.28.08.08 0 01-.013-.054.08.08 0 01.027-.049.076.076 0 01.103.001 5.574 5.574 0 003.313 1.182c.07-.213-.305-2.86-.188-2.86.602.087 1.189.26 1.743.512-.164-3.499-.875-6.942-.985-10.425 0-.027.011-.053.03-.073a.101.101 0 01.173.073c1.008 3.554 1.282 7.572 1.563 11.181-.015.37-1.586-.315-1.883-.465z" fill="#18181B"/><path d="M126.186 89.832a4.5 4.5 0 01-1.852 1.363 1.993 1.993 0 01-1.235.04c-.89-.26-.89-1.088-.703-1.797a5.03 5.03 0 01.43-1.072 5.819 5.819 0 003.36 1.466z" fill="#18181B"/><path d="M124.334 91.18a1.993 1.993 0 01-1.235.039c-.89-.26-.89-1.088-.703-1.797.472.032.919.222 1.27.541.352.319.587.747.668 1.217z" fill="#F68420"/><path d="M104.525 83.229c2.695.496 3.906-5.178 3.906-5.178s5.517.615 8.181-7.194a12.38 12.38 0 01-3.125 6.351s9.837 0 14.806-7.762c0 0-2.078 4.004-3.766 5.327 0 0 4.204-.709 6.54-3.837 0 0 1.203 4.917 2.344 6.367 0 0 1.406-17.21-14.557-17.076 0 0-9.946-.394-14.321 7.092-4.376 7.486-.008 15.91-.008 15.91z" fill="#18181B"/><path d="M106.987 84.088s-3.125-5.359-5.547-4.264c-2.422 1.096-.274 8.668 2.344 9.898a2.73 2.73 0 002.142.209 2.763 2.763 0 001.632-1.414l-.571-4.43z" fill="#F68420"/><path d="M102.072 81.952c-.046 0-.062.055 0 .07 1.829.915 2.696 2.759 3.259 4.634a1.573 1.573 0 00-.99-.788 1.551 1.551 0 00-1.245.205c-.047 0 0 .11.047.103.339-.08.694-.052 1.017.079a1.7 1.7 0 01.788.654 8.95 8.95 0 01.781 1.575c.07.182.383.11.336-.086v-.047c.219-2.388-1.398-5.926-3.993-6.399z" fill="#18181B"/></svg>