<svg width="64" height="64" fill="none" xmlns="http://www.w3.org/2000/svg"><path d="M40 60.667c-.72 0-1.387-.4-1.733-1.014a2.037 2.037 0 01.026-2.026l2.8-4.667c.56-.96 1.814-1.253 2.747-.693.96.56 1.253 1.786.693 2.746l-.72 1.2c7.36-1.733 12.88-8.346 12.88-16.24 0-1.093.907-2 2-2 1.094 0 2 .907 2 2C60.667 51.387 51.387 60.667 40 60.667zM5.333 26c-1.093 0-2-.907-2-2 0-11.387 9.28-20.667 20.667-20.667.72 0 1.387.4 1.733 1.014.347.64.347 1.386-.026 2.026l-2.8 4.667a1.99 1.99 0 01-2.747.667 1.99 1.99 0 01-.667-2.747l.72-1.2C12.827 9.493 7.333 16.107 7.333 24c0 1.093-.906 2-2 2z" fill="#18181B"/><path d="M39.467 33.68v7.84c0 6.533-2.614 9.147-9.147 9.147h-7.84c-6.533 0-9.147-2.614-9.147-9.147v-7.84c0-6.533 2.614-9.147 9.147-9.147h7.84c6.533 0 9.147 2.614 9.147 9.147z" fill="#FFD800"/><path d="M41.52 13.333h-7.84c-6.427 0-9.04 2.56-9.12 8.854h5.76c7.84 0 11.467 3.653 11.467 11.466v5.76c6.32-.08 8.853-2.693 8.853-9.12V22.48c.027-6.533-2.587-9.147-9.12-9.147z" fill="#FFD800"/></svg>