<svg width="64" height="64" fill="none" xmlns="http://www.w3.org/2000/svg"><path d="M29.227 5.627L14.56 11.12c-2.8 1.067-5.093 4.373-5.093 7.387v21.6c0 2.16 1.413 5.013 3.146 6.293L27.28 57.36c2.587 1.947 6.827 1.947 9.413 0L51.36 46.4c1.733-1.307 3.147-4.133 3.147-6.293v-21.6c0-2.987-2.294-6.32-5.094-7.36L34.747 5.653c-1.494-.586-4-.586-5.52-.026z" fill="#FFDC3F"/><path d="M38.667 28A6.67 6.67 0 0032 21.333 6.67 6.67 0 0025.333 28c0 2.987 1.974 5.467 4.667 6.32v7.013c0 1.094.907 2 2 2s2-.906 2-2V34.32c2.693-.853 4.667-3.333 4.667-6.32z" fill="#18181B"/></svg>